<svg xmlns="http://www.w3.org/2000/svg" viewBox="0 0 500 500"><g id="freepik--background-complete--inject-80"><rect x="40.91" y="63.07" width="412.98" height="297.67" style="fill:#e0e0e0"></rect><rect x="50.92" y="71.66" width="395.85" height="280.5" style="fill:#fafafa"></rect><rect x="62.32" y="97.75" width="130.39" height="8.19" style="fill:#e0e0e0"></rect><path d="M67.64,105.94v8.56h2.23s-3.67,3-4,5.91H79s0-2.17-4-5.85h2.2v-8.92Z" style="fill:#e0e0e0"></path><path d="M95.31,105.94v8.56h2.24s-3.68,3-4,5.91h13.11s0-2.17-4-5.85h2.21v-8.92Z" style="fill:#e0e0e0"></path><path d="M123,105.94v8.56h2.24s-3.68,3-4,5.91h13.11s0-2.17-4-5.85h2.21v-8.92Z" style="fill:#e0e0e0"></path><path d="M150.65,105.94v8.56h2.24s-3.68,3-4,5.91H162s0-2.17-4-5.85h2.21v-8.92Z" style="fill:#e0e0e0"></path><path d="M178.32,105.94v8.56h2.24s-3.67,3-4,5.91h13.1s0-2.17-4-5.85h2.21v-8.92Z" style="fill:#e0e0e0"></path><path d="M71.61,71.39c.15,0,.27,6.74.27,15s-.12,15-.27,15-.27-6.74-.27-15S71.46,71.39,71.61,71.39Z" style="fill:#e0e0e0"></path><path d="M183.23,71.39c.15,0,.27,6.74.27,15s-.12,15-.27,15-.27-6.74-.27-15S183.08,71.39,183.23,71.39Z" style="fill:#e0e0e0"></path><rect x="274.78" y="97.75" width="130.39" height="8.19" style="fill:#e0e0e0"></rect><path d="M280.09,105.94v8.56h2.24s-3.68,3-4,5.91h13.11s0-2.17-4-5.85h2.21v-8.92Z" style="fill:#e0e0e0"></path><path d="M307.76,105.94v8.56H310s-3.67,3-4,5.91h13.1s0-2.17-4-5.85h2.21v-8.92Z" style="fill:#e0e0e0"></path><path d="M335.44,105.94v8.56h2.23s-3.67,3-4,5.91h13.1s0-2.17-4-5.85H345v-8.92Z" style="fill:#e0e0e0"></path><path d="M363.11,105.94v8.56h2.24s-3.68,3-4,5.91h13.11s0-2.17-4-5.85h2.21v-8.92Z" style="fill:#e0e0e0"></path><path d="M390.78,105.94v8.56H393s-3.68,3-4,5.91h13.11s0-2.17-4-5.85h2.21v-8.92Z" style="fill:#e0e0e0"></path><path d="M284.07,71.39c.15,0,.27,6.74.27,15s-.12,15-.27,15-.27-6.74-.27-15S283.92,71.39,284.07,71.39Z" style="fill:#e0e0e0"></path><path d="M395.68,71.39c.15,0,.27,6.74.27,15s-.12,15-.27,15-.27-6.74-.27-15S395.53,71.39,395.68,71.39Z" style="fill:#e0e0e0"></path><rect x="343.72" y="158.19" width="74.07" height="5.58" style="fill:#e0e0e0"></rect><rect x="203.06" y="229.87" width="49.39" height="30.14" rx="4.97" style="fill:#e0e0e0"></rect><rect x="199.17" y="229.87" width="49.39" height="30.14" rx="4.97" style="fill:#f5f5f5"></rect><path d="M244.56,258.7s.23-.14.61-.46a4.17,4.17,0,0,0,1.15-1.79c.71-1.77.3-4.56.24-8s-.24-7.47-.38-12a11.5,11.5,0,0,0-.28-3.34,1.85,1.85,0,0,0-1-1.12,5.5,5.5,0,0,0-1.7-.23l-7.58-.14c-10.39-.08-19.81.1-26.62-.1a32.33,32.33,0,0,0-4.57.06,8.2,8.2,0,0,0-3.23,1,6.18,6.18,0,0,0-2.11,2s0-.07.08-.19a4,4,0,0,1,.29-.49,5.65,5.65,0,0,1,1.63-1.5,8.51,8.51,0,0,1,3.31-1.13,30.71,30.71,0,0,1,4.61-.14c6.8.1,16.21-.14,26.61-.06l7.58.15a5.62,5.62,0,0,1,1.89.27,2.31,2.31,0,0,1,1.32,1.42,11.35,11.35,0,0,1,.3,3.52c.1,4.49.19,8.53.26,11.95,0,1.7.06,3.24.09,4.6a9,9,0,0,1-.51,3.46,4.16,4.16,0,0,1-1.28,1.8A2.27,2.27,0,0,1,244.56,258.7Z" style="fill:#e0e0e0"></path><rect x="217.85" y="243.34" width="12.95" height="2.31" style="fill:#e0e0e0"></rect><path d="M204.84,239.53a.33.33,0,0,0,0-.66.33.33,0,0,0,0,.66Z" style="fill:#e0e0e0"></path><path d="M210.11,239.19l.07-.07c.26-.24-.14-.63-.38-.38l-.07.07a.27.27,0,0,0,.38.38Z" style="fill:#e0e0e0"></path><path d="M207.82,243.35a.29.29,0,0,0,0-.57.29.29,0,0,0,0,.57Z" style="fill:#e0e0e0"></path><path d="M214.26,242.93a.28.28,0,0,0,0-.55.28.28,0,0,0,0,.55Z" style="fill:#e0e0e0"></path><path d="M205.66,251.2a.35.35,0,0,0,0-.69.35.35,0,0,0,0,.69Z" style="fill:#e0e0e0"></path><path d="M202.13,244.5a.28.28,0,0,0,0-.56.28.28,0,0,0,0,.56Z" style="fill:#e0e0e0"></path><path d="M201.32,241.46a.23.23,0,0,0,0-.45.23.23,0,0,0,0,.45Z" style="fill:#e0e0e0"></path><path d="M202.67,236.24a.22.22,0,0,0,0-.44.22.22,0,0,0,0,.44Z" style="fill:#e0e0e0"></path><path d="M207,234.61a.29.29,0,0,0,0-.57.29.29,0,0,0,0,.57Z" style="fill:#e0e0e0"></path><path d="M207.42,237.29a.26.26,0,0,0,0-.51.26.26,0,0,0,0,.51Z" style="fill:#e0e0e0"></path><path d="M214.6,234.66a.27.27,0,0,0,0-.53.27.27,0,0,0,0,.53Z" style="fill:#e0e0e0"></path><path d="M212.09,241.28a.32.32,0,0,0,0-.63.32.32,0,0,0,0,.63Z" style="fill:#e0e0e0"></path><path d="M215.61,238.92a.19.19,0,0,0,0-.39.19.19,0,0,0,0,.39Z" style="fill:#e0e0e0"></path><path d="M210.74,235.24a.17.17,0,0,0,0-.34.17.17,0,0,0,0,.34Z" style="fill:#e0e0e0"></path><path d="M210.8,246a.25.25,0,0,0,0-.5.25.25,0,0,0,0,.5Z" style="fill:#e0e0e0"></path><path d="M205,246.76a.24.24,0,0,0,0-.48.24.24,0,0,0,0,.48Z" style="fill:#e0e0e0"></path><path d="M200.91,250.21a.24.24,0,0,0,0-.47.24.24,0,0,0,0,.47Z" style="fill:#e0e0e0"></path><path d="M204.71,241.81a.17.17,0,0,0,0-.34.17.17,0,0,0,0,.34Z" style="fill:#e0e0e0"></path><path d="M200.1,237.19h.14a.23.23,0,0,0,0-.45h-.14a.22.22,0,0,0,0,.44Z" style="fill:#e0e0e0"></path><path d="M202.81,233.05a.08.08,0,0,0,0-.16.08.08,0,0,0,0,.16Z" style="fill:#e0e0e0"></path><path d="M212.16,244.58a.16.16,0,0,0,0-.32.16.16,0,0,0,0,.32Z" style="fill:#e0e0e0"></path><path d="M209.31,249.4a.24.24,0,0,0,0-.48.24.24,0,0,0,0,.48Z" style="fill:#e0e0e0"></path><path d="M209.92,254.69a.25.25,0,0,0,0-.49.25.25,0,0,0,0,.49Z" style="fill:#e0e0e0"></path><path d="M204.23,257.86a.23.23,0,0,0,0-.46.23.23,0,0,0,0,.46Z" style="fill:#e0e0e0"></path><path d="M201.66,253.73a.16.16,0,0,0,0-.32.16.16,0,0,0,0,.32Z" style="fill:#e0e0e0"></path><path d="M205.49,254.31a.51.51,0,0,0,0-1,.51.51,0,0,0,0,1Z" style="fill:#e0e0e0"></path><path d="M209,258.44a.33.33,0,0,0,0-.66.33.33,0,0,0,0,.66Z" style="fill:#e0e0e0"></path><path d="M201,257.22l.08-.06c.29-.23-.18-.7-.41-.41l-.06.08a.28.28,0,0,0,.39.39Z" style="fill:#e0e0e0"></path><path d="M201.18,246.69h.07a.31.31,0,0,0,0-.61h-.07a.3.3,0,0,0,0,.6Z" style="fill:#e0e0e0"></path><path d="M213.31,249.67a.44.44,0,0,0,0-.88.44.44,0,0,0,0,.88Z" style="fill:#e0e0e0"></path><path d="M215.48,246.58a.26.26,0,0,0,0-.52.26.26,0,0,0,0,.52Z" style="fill:#e0e0e0"></path><path d="M218.19,251.5l.08,0a.24.24,0,0,0,.33-.33l0-.08c-.22-.39-.76.15-.37.37Z" style="fill:#e0e0e0"></path><path d="M212.23,252.34a.2.2,0,0,0,0-.39.2.2,0,0,0,0,.39Z" style="fill:#e0e0e0"></path><path d="M216,255.64a.59.59,0,0,0,0-1.17.59.59,0,0,0,0,1.17Z" style="fill:#e0e0e0"></path><path d="M213.18,258.3a.33.33,0,0,0,0-.66.33.33,0,0,0,0,.66Z" style="fill:#e0e0e0"></path><path d="M212.84,254.4a.3.3,0,0,0,0-.59.3.3,0,0,0,0,.59Z" style="fill:#e0e0e0"></path><path d="M222.86,255.63a.17.17,0,0,0,0-.34.17.17,0,0,0,0,.34Z" style="fill:#e0e0e0"></path><path d="M218.19,258.45a.35.35,0,0,0,0-.69.35.35,0,0,0,0,.69Z" style="fill:#e0e0e0"></path><path d="M220.9,253.07a.18.18,0,0,0,0-.36.18.18,0,1,0,0,.36Z" style="fill:#e0e0e0"></path><path d="M222.94,246.83h0a.58.58,0,0,0-.65.85v0a.59.59,0,0,0,1,.06.59.59,0,0,0-.31-.93Z" style="fill:#e0e0e0"></path><path d="M219.49,239.73h0c.72-.36-.23-1.45-.69-.7l0,0a.5.5,0,0,0,.68.68Z" style="fill:#e0e0e0"></path><path d="M229,234v-.07c.06-.61-1-.61-.95,0V234a.47.47,0,0,0,.93,0Z" style="fill:#e0e0e0"></path><path d="M234.87,240l0-.06a.48.48,0,0,0-.64-.17l-.07,0a.54.54,0,1,0,.74.19Z" style="fill:#e0e0e0"></path><path d="M239.9,236.14l0,.06a.5.5,0,0,0,.84,0l0-.06c.41-1-1.3-1-.89,0Z" style="fill:#e0e0e0"></path><path d="M244,243.94a.5.5,0,0,0,0-1,.5.5,0,0,0,0,1Z" style="fill:#e0e0e0"></path><path d="M238.58,249.81a.58.58,0,0,0,0-1.15.58.58,0,0,0,0,1.15Z" style="fill:#e0e0e0"></path><path d="M231.67,255.3l.11-.15c.33-.43-.33-.82-.68-.53l-.15.12c-.49.38.29,1.14.72.56Z" style="fill:#e0e0e0"></path><path d="M231.67,250.1h.06a.28.28,0,1,0,0-.54h-.06a.27.27,0,0,0,0,.52Z" style="fill:#e0e0e0"></path><path d="M241.56,255.05a.27.27,0,0,0,0-.53.27.27,0,0,0,0,.53Z" style="fill:#e0e0e0"></path><path d="M226.86,239.23a.23.23,0,0,0,0-.45.23.23,0,0,0,0,.45Z" style="fill:#e0e0e0"></path><path d="M221.92,236.77a.28.28,0,0,0,0-.55.28.28,0,0,0,0,.55Z" style="fill:#e0e0e0"></path><path d="M213,237.84a.61.61,0,0,0,0-1.21.61.61,0,0,0,0,1.21Z" style="fill:#e0e0e0"></path><path d="M207,247.58l.12,0a.57.57,0,0,0,0-1.09l-.12,0c-1-.31-1,1.49,0,1.17Z" style="fill:#e0e0e0"></path><path d="M224.76,252.15a.21.21,0,0,0,0-.42.21.21,0,0,0,0,.42Z" style="fill:#e0e0e0"></path><path d="M218.87,248.37a.22.22,0,0,0,0-.44.22.22,0,0,0,0,.44Z" style="fill:#e0e0e0"></path><path d="M229,247.73l.07,0a.32.32,0,0,0,0-.6l-.07,0c-.54-.2-.54.87,0,.66Z" style="fill:#e0e0e0"></path><path d="M225.85,249.48a.25.25,0,0,0,0-.5.25.25,0,0,0,0,.5Z" style="fill:#e0e0e0"></path><path d="M228.56,250.87a.08.08,0,0,0,0-.16.08.08,0,1,0,0,.16Z" style="fill:#e0e0e0"></path><path d="M227,256.57a.3.3,0,0,0,0-.59.3.3,0,0,0,0,.59Z" style="fill:#e0e0e0"></path><path d="M223,259.33a.28.28,0,0,0,0-.55.28.28,0,0,0,0,.55Z" style="fill:#e0e0e0"></path><path d="M219.07,256.44a0,0,0,0,0,0-.05,0,0,0,0,0,0,.05Z" style="fill:#e0e0e0"></path><path d="M218.66,256.33a.12.12,0,0,0,0-.24.12.12,0,0,0,0,.24Z" style="fill:#e0e0e0"></path><path d="M215.61,250.1h.07a.19.19,0,0,0,0-.38h-.07a.19.19,0,0,0,0,.38Z" style="fill:#e0e0e0"></path><path d="M222.59,241.37a.27.27,0,0,0,0-.54.27.27,0,0,0,0,.54Z" style="fill:#e0e0e0"></path><path d="M218.53,242.17a.19.19,0,0,0,0-.38.19.19,0,0,0,0,.38Z" style="fill:#e0e0e0"></path><path d="M223.34,239.05a.25.25,0,0,0,0-.5.25.25,0,0,0,0,.5Z" style="fill:#e0e0e0"></path><path d="M218.53,235.56a.49.49,0,0,0,0-1,.49.49,0,0,0,0,1Z" style="fill:#e0e0e0"></path><path d="M223.07,233.45a.21.21,0,0,0,0-.42.21.21,0,0,0,0,.42Z" style="fill:#e0e0e0"></path><path d="M202.55,238.76a.48.48,0,0,0-.88.37c.18.67,1.24.24.88-.37Z" style="fill:#e0e0e0"></path><path d="M227.13,236.35a.2.2,0,0,0,0-.39.2.2,0,0,0,0,.39Z" style="fill:#e0e0e0"></path><path d="M235.19,234.08a.23.23,0,0,0,0-.45.23.23,0,0,0,0,.45Z" style="fill:#e0e0e0"></path><path d="M234.25,239.45a.25.25,0,0,0,0-.49.25.25,0,0,0,0,.49Z" style="fill:#e0e0e0"></path><path d="M229.17,237.4a.1.1,0,0,0,0-.19.1.1,0,1,0,0,.19Z" style="fill:#e0e0e0"></path><path d="M232,235.32a.18.18,0,0,0,0-.36.18.18,0,0,0,0,.36Z" style="fill:#e0e0e0"></path><path d="M231.72,240.27l0,0a.21.21,0,0,0,0-.29l0,0a.26.26,0,1,0,0,.37Z" style="fill:#e0e0e0"></path><path d="M227,241.58a.21.21,0,0,0,0-.42.21.21,0,0,0,0,.42Z" style="fill:#e0e0e0"></path><path d="M234.18,244.72a.57.57,0,0,0,0-1.14.57.57,0,0,0,0,1.14Z" style="fill:#e0e0e0"></path><path d="M233.77,249.53a.37.37,0,0,0,0-.73.37.37,0,0,0,0,.73Z" style="fill:#e0e0e0"></path><path d="M233.64,247.36a.23.23,0,0,0,0-.45.23.23,0,0,0,0,.45Z" style="fill:#e0e0e0"></path><path d="M237.3,246.82a.3.3,0,0,0,0-.6.3.3,0,0,0,0,.6Z" style="fill:#e0e0e0"></path><path d="M240.68,244.06a.32.32,0,0,0,0-.63.32.32,0,0,0,0,.63Z" style="fill:#e0e0e0"></path><path d="M238,241.5a.27.27,0,0,0,0-.53.27.27,0,0,0,0,.53Z" style="fill:#e0e0e0"></path><path d="M243.73,240.48a.26.26,0,0,0,0-.52.26.26,0,0,0,0,.52Z" style="fill:#e0e0e0"></path><path d="M237.43,236.06a.25.25,0,0,0,0-.49.25.25,0,0,0,0,.49Z" style="fill:#e0e0e0"></path><path d="M236.2,237.58h.06a.2.2,0,0,0,0-.39h-.06a.21.21,0,1,0,0,.41Z" style="fill:#e0e0e0"></path><path d="M241.09,239a.23.23,0,0,0,0-.46.23.23,0,0,0,0,.46Z" style="fill:#e0e0e0"></path><path d="M243.6,234.11a.47.47,0,0,0,0-.93.47.47,0,0,0,0,.93Z" style="fill:#e0e0e0"></path><path d="M244.21,248.67a.25.25,0,0,0,0-.5.25.25,0,0,0,0,.5Z" style="fill:#e0e0e0"></path><path d="M241.56,246.8a.15.15,0,0,0,0-.29.15.15,0,0,0,0,.29Z" style="fill:#e0e0e0"></path><path d="M243.87,252.07a.06.06,0,1,0,0-.12.06.06,0,0,0,0,.12Z" style="fill:#e0e0e0"></path><path d="M240.07,251.53a.2.2,0,0,0,0-.4.2.2,0,0,0,0,.4Z" style="fill:#e0e0e0"></path><path d="M235.53,255.26a.21.21,0,0,0,0-.41.21.21,0,0,0,0,.41Z" style="fill:#e0e0e0"></path><path d="M237.57,259a.3.3,0,0,0,0-.6.3.3,0,0,0,0,.6Z" style="fill:#e0e0e0"></path><path d="M229.5,259.11a.26.26,0,0,0,0-.52.26.26,0,0,0,0,.52Z" style="fill:#e0e0e0"></path><path d="M232.08,257.89a.26.26,0,0,0,0-.52.26.26,0,0,0,0,.52Z" style="fill:#e0e0e0"></path><path d="M225,254a.2.2,0,0,0,0-.4.2.2,0,0,0,0,.4Z" style="fill:#e0e0e0"></path><path d="M236.76,250.82v.07a.14.14,0,1,0,.27,0v-.07c0-.12-.22-.12-.25,0Z" style="fill:#e0e0e0"></path><path d="M234.52,252.7a.22.22,0,0,0,0-.44.22.22,0,0,0,0,.44Z" style="fill:#e0e0e0"></path><path d="M228,253.21a.05.05,0,1,0,0-.1.05.05,0,1,0,0,.1Z" style="fill:#e0e0e0"></path><path d="M240.82,258.33a.29.29,0,0,0,0-.58.29.29,0,0,0,0,.58Z" style="fill:#e0e0e0"></path><path d="M208.84,256.85a.24.24,0,0,0,0-.47.24.24,0,0,0,0,.47Z" style="fill:#e0e0e0"></path><path d="M206.33,257.18a.16.16,0,0,0,0-.31.16.16,0,0,0,0,.31Z" style="fill:#e0e0e0"></path><path d="M201.93,255a.19.19,0,0,0,0-.37.19.19,0,0,0,0,.37Z" style="fill:#e0e0e0"></path><path d="M202.88,250.87a.22.22,0,0,0,0-.43.22.22,0,0,0,0,.43Z" style="fill:#e0e0e0"></path><path d="M209.25,252.8a.25.25,0,0,0,0-.5.25.25,0,0,0,0,.5Z" style="fill:#e0e0e0"></path><rect x="186.94" y="260.01" width="83.43" height="92.74" style="fill:#e0e0e0"></rect><rect x="186.94" y="260.01" width="66.78" height="92.74" style="fill:#ebebeb"></rect><rect x="313.74" y="306.38" width="122.05" height="46.37" style="fill:#e0e0e0"></rect><rect x="300.39" y="306.38" width="122.05" height="46.37" style="fill:#ebebeb"></rect><rect x="339.03" y="298.22" width="3.47" height="8.19" style="fill:#e0e0e0"></rect><path d="M337.21,277.93l-.1,1.79a5.33,5.33,0,0,1-3.94,5.15l-4.37,1.18s-.9,17.14,11.61,17.55,12.79-17.46,12.79-17.46-2-.44-4-1a5,5,0,0,1-3.69-5l.08-2.2Z" style="fill:#e0e0e0"></path><rect x="340.34" y="275.14" width="2.15" height="4.8" style="fill:#e0e0e0"></rect><path d="M343.67,274a2.24,2.24,0,1,1-2.24-2.25A2.24,2.24,0,0,1,343.67,274Z" style="fill:#e0e0e0"></path><path d="M346.22,283a4.09,4.09,0,0,1-.76,2.1,7.09,7.09,0,0,1-1.63,1.83,5.42,5.42,0,0,1-2.79,1.19,4.46,4.46,0,0,1-2.91-.9,7.27,7.27,0,0,1-1.68-1.79,6.58,6.58,0,0,1-1-2,15.1,15.1,0,0,1,1.34,1.74,8,8,0,0,0,1.66,1.61,4,4,0,0,0,2.58.77,5.13,5.13,0,0,0,2.53-1.05,7.72,7.72,0,0,0,1.61-1.64C345.91,283.79,346.13,283,346.22,283Z" style="fill:#f5f5f5"></path><path d="M341,287.94a1.39,1.39,0,1,0,1.07,2.3,1.45,1.45,0,0,0-.63-2.23" style="fill:#ebebeb"></path><path d="M341,290.67a.85.85,0,1,0,.28,0" style="fill:#ebebeb"></path><rect x="374.16" y="298.22" width="3.47" height="8.19" style="fill:#e0e0e0"></rect><path d="M372.34,277.93l-.09,1.79a5.34,5.34,0,0,1-3.94,5.15l-4.37,1.18s-.91,17.14,11.61,17.55,12.79-17.46,12.79-17.46-2-.44-4-1a5,5,0,0,1-3.69-5l.08-2.2Z" style="fill:#e0e0e0"></path><rect x="375.48" y="275.14" width="2.15" height="4.8" style="fill:#e0e0e0"></rect><path d="M378.81,274a2.24,2.24,0,1,1-2.24-2.25A2.24,2.24,0,0,1,378.81,274Z" style="fill:#e0e0e0"></path><path d="M381.36,283a4.09,4.09,0,0,1-.76,2.1,7.15,7.15,0,0,1-1.64,1.83,5.35,5.35,0,0,1-2.78,1.19,4.44,4.44,0,0,1-2.91-.9,7.27,7.27,0,0,1-1.68-1.79,6.79,6.79,0,0,1-1-2,14.4,14.4,0,0,1,1.35,1.74,7.52,7.52,0,0,0,1.66,1.61,4,4,0,0,0,2.57.77,5,5,0,0,0,2.53-1.05,7.79,7.79,0,0,0,1.62-1.64C381.05,283.79,381.27,283,381.36,283Z" style="fill:#f5f5f5"></path><path d="M376.11,287.94a1.4,1.4,0,1,0,.45.07" style="fill:#ebebeb"></path><path d="M376.12,290.67a.85.85,0,1,0,.27,0" style="fill:#ebebeb"></path><rect x="409.3" y="298.22" width="3.47" height="8.19" style="fill:#e0e0e0"></rect><path d="M407.48,277.93l-.1,1.79a5.33,5.33,0,0,1-3.93,5.15l-4.38,1.18s-.9,17.14,11.61,17.55,12.79-17.46,12.79-17.46-2-.44-4-1a5,5,0,0,1-3.69-5l.08-2.2Z" style="fill:#e0e0e0"></path><rect x="410.62" y="275.14" width="2.15" height="4.8" style="fill:#e0e0e0"></rect><path d="M414,274a2.25,2.25,0,1,1-2.25-2.25A2.25,2.25,0,0,1,414,274Z" style="fill:#e0e0e0"></path><path d="M416.49,283a4,4,0,0,1-.76,2.1,6.91,6.91,0,0,1-1.63,1.83,5.42,5.42,0,0,1-2.79,1.19,4.46,4.46,0,0,1-2.91-.9,7,7,0,0,1-1.67-1.79,6.49,6.49,0,0,1-1-2,15.1,15.1,0,0,1,1.34,1.74,8,8,0,0,0,1.66,1.61,4.09,4.09,0,0,0,2.58.77,5.13,5.13,0,0,0,2.53-1.05,7.49,7.49,0,0,0,1.61-1.64C416.19,283.79,416.4,283,416.49,283Z" style="fill:#f5f5f5"></path><path d="M411.25,287.94a1.39,1.39,0,1,0,1.07,2.3,1.45,1.45,0,0,0-.63-2.23" style="fill:#ebebeb"></path><path d="M411.26,290.67a.85.85,0,1,0,.65,1.41.88.88,0,0,0-.38-1.37" style="fill:#ebebeb"></path><rect x="321.78" y="318.51" width="85.17" height="16" style="fill:#fafafa"></rect><rect x="344.93" y="255.07" width="74.07" height="5.58" style="fill:#e0e0e0"></rect><rect x="357.7" y="225.34" width="49.39" height="30.14" style="fill:#e0e0e0"></rect><rect x="355.31" y="225.34" width="49.39" height="30.14" style="fill:#ebebeb"></rect><path d="M404.7,225.34a2.24,2.24,0,0,1-.37.42c-.26.26-.61.66-1.13,1.12a30.72,30.72,0,0,1-4.68,3.52,36.46,36.46,0,0,1-18.41,5.22,35.34,35.34,0,0,1-18.49-4.94,33.47,33.47,0,0,1-4.76-3.4c-.53-.43-.91-.82-1.17-1.07s-.4-.39-.38-.41.61.47,1.68,1.32a39.39,39.39,0,0,0,4.82,3.23,36.09,36.09,0,0,0,18.29,4.73,37.31,37.31,0,0,0,18.23-5,34.5,34.5,0,0,0,4.73-3.35C404.11,225.83,404.66,225.31,404.7,225.34Z" style="fill:#e0e0e0"></path><path d="M382,235.27a2.06,2.06,0,0,0-.58-1.21,2.16,2.16,0,0,0-3.28.32,2.19,2.19,0,0,0,2.66,3.33A2.25,2.25,0,0,0,382,235.27Z" style="fill:#fafafa"></path><rect x="343.36" y="199.96" width="74.07" height="5.58" style="fill:#e0e0e0"></rect><polygon points="402.38 200.04 368.48 200.04 368.48 174.14 397.71 174.14 402.38 200.04" style="fill:#e0e0e0"></polygon><polygon points="394.65 200.04 356.94 200.04 360.09 174.14 396.8 174.14 394.65 200.04" style="fill:#ebebeb"></polygon><path d="M396.65,173.85a1.65,1.65,0,0,1-.15.52c-.11.34-.29.82-.54,1.45a35,35,0,0,1-2.55,5.07,23.73,23.73,0,0,1-5.55,6.35,16.43,16.43,0,0,1-9.6,3.65,17.13,17.13,0,0,1-9.9-2.79,17.85,17.85,0,0,1-5.69-6.21,18.91,18.91,0,0,1-2-5.33,15.38,15.38,0,0,1-.24-1.53,2,2,0,0,1,0-.54c.05,0,.14.73.46,2A20.35,20.35,0,0,0,363,181.7a17.9,17.9,0,0,0,5.63,6,16.79,16.79,0,0,0,9.61,2.67,16.13,16.13,0,0,0,9.31-3.5,24.26,24.26,0,0,0,5.54-6.16,40,40,0,0,0,2.67-5l.64-1.4A2.33,2.33,0,0,1,396.65,173.85Z" style="fill:#e0e0e0"></path><path d="M377.1,195.67a11.48,11.48,0,0,1,0-4.95,5.91,5.91,0,0,1,.25,2.48A5.81,5.81,0,0,1,377.1,195.67Z" style="fill:#e0e0e0"></path><path d="M379.94,195.6a5.67,5.67,0,0,1-.4-2.62,6,6,0,0,1,.29-2.64,17.83,17.83,0,0,1,.11,5.26Z" style="fill:#e0e0e0"></path><path d="M382.15,194.84a5.5,5.5,0,0,1-.28-2.57,5.3,5.3,0,0,1,.42-2.54,7.26,7.26,0,0,1,.12,2.56A7.4,7.4,0,0,1,382.15,194.84Z" style="fill:#e0e0e0"></path><path d="M384.73,194.23a14.09,14.09,0,0,1,0-5.49,13.6,13.6,0,0,1,0,5.49Z" style="fill:#e0e0e0"></path><path d="M387.47,192.93a8.47,8.47,0,0,1-.17-3,8.57,8.57,0,0,1,.38-3,8.62,8.62,0,0,1,.16,3A8.72,8.72,0,0,1,387.47,192.93Z" style="fill:#e0e0e0"></path><path d="M390.08,190.26a6.58,6.58,0,0,1-.14-3,6.79,6.79,0,0,1,.65-2.9,10.59,10.59,0,0,1-.11,3A10.65,10.65,0,0,1,390.08,190.26Z" style="fill:#e0e0e0"></path><path d="M392.3,188.05a11.75,11.75,0,0,1,.05-3.57,12.11,12.11,0,0,1,.59-3.52,11.77,11.77,0,0,1-.05,3.57A11.93,11.93,0,0,1,392.3,188.05Z" style="fill:#e0e0e0"></path><path d="M394.7,183.33a8.28,8.28,0,0,1,0-3,8.15,8.15,0,0,1,.55-2.91,8.28,8.28,0,0,1,0,3A8.15,8.15,0,0,1,394.7,183.33Z" style="fill:#e0e0e0"></path><path d="M373.68,194.53a3.69,3.69,0,0,1-.26-2.12c.06-1.17.34-2.1.49-2.07s.11,1,0,2.1S373.84,194.52,373.68,194.53Z" style="fill:#e0e0e0"></path><path d="M370.77,194.61a6.77,6.77,0,0,1-.06-2.69,6.7,6.7,0,0,1,.48-2.65,13.38,13.38,0,0,1-.42,5.34Z" style="fill:#e0e0e0"></path><path d="M368.2,192.86a9.91,9.91,0,0,1-.05-2.56,10.23,10.23,0,0,1,.11-2.55,4.57,4.57,0,0,1,.44,2.56A4.82,4.82,0,0,1,368.2,192.86Z" style="fill:#e0e0e0"></path><path d="M365.51,192a9.86,9.86,0,0,1-.09-3.25,10.06,10.06,0,0,1,.46-3.22,9.71,9.71,0,0,1,.08,3.25A9.9,9.9,0,0,1,365.51,192Z" style="fill:#e0e0e0"></path><path d="M363.07,189.06a7.21,7.21,0,0,1,0-3.16,10.49,10.49,0,0,1,.62-3.08,8.28,8.28,0,0,1-.08,3.15A13.51,13.51,0,0,1,363.07,189.06Z" style="fill:#e0e0e0"></path><path d="M361.24,185a7.3,7.3,0,0,1-.29-3.18,7.4,7.4,0,0,1,.56-3.14,13.41,13.41,0,0,1,0,3.17A13.56,13.56,0,0,1,361.24,185Z" style="fill:#e0e0e0"></path><rect x="373.91" y="178.64" width="8.21" height="1.19" style="fill:#fafafa"></rect><rect x="355.01" y="137.82" width="55.43" height="20.38" style="fill:#e0e0e0"></rect><rect x="350.1" y="137.82" width="55.43" height="20.38" style="fill:#ebebeb"></rect><path d="M410.45,144.28c0,.15-13.46.27-30.05.27s-30.06-.12-30.06-.27,13.45-.27,30.06-.27S410.45,144.13,410.45,144.28Z" style="fill:#fafafa"></path><path d="M410.33,140.32c0,.15-13.55.28-30.27.28s-30.28-.13-30.28-.28,13.55-.27,30.28-.27S410.33,140.17,410.33,140.32Z" style="fill:#fafafa"></path><path d="M410.45,152.19c0,.15-13.46.27-30.05.27s-30.06-.12-30.06-.27,13.45-.27,30.06-.27S410.45,152,410.45,152.19Z" style="fill:#fafafa"></path><path d="M410.22,155.73c0,.15-13.46.27-30.05.27s-30.05-.12-30.05-.27,13.45-.27,30.05-.27S410.22,155.58,410.22,155.73Z" style="fill:#fafafa"></path><path d="M410.33,148.24c0,.15-13.55.27-30.27.27s-30.28-.12-30.28-.27,13.55-.27,30.28-.27S410.33,148.09,410.33,148.24Z" style="fill:#fafafa"></path><path d="M405.53,137.82a2.43,2.43,0,0,1-.52.31l-1.56.81-5.79,2.87-19.24,9.31-.11.06-.12-.06-.4-.18-19.63-9.18-5.92-2.83-1.6-.8a2.69,2.69,0,0,1-.54-.31,2.2,2.2,0,0,1,.59.21l1.64.7,6,2.68,19.7,9,.4.18h-.23l19.3-9.17,5.87-2.71L405,138A2.92,2.92,0,0,1,405.53,137.82Z" style="fill:#f5f5f5"></path><path d="M378.55,147.61a3.13,3.13,0,0,0-3.15,2,3.09,3.09,0,1,0,5.76-.22,3.24,3.24,0,0,0-3.23-1.9" style="fill:#f5f5f5"></path><path d="M396.38,137.82s-.29-.54-.82-1.48a22.71,22.71,0,0,0-2.65-3.75,14.93,14.93,0,0,0-5.31-4.07,20.44,20.44,0,0,0-8.12-1.41,25,25,0,0,0-8.13,1.55,14.61,14.61,0,0,0-5.6,3.68,11.26,11.26,0,0,0-2.36,3.87c-.36,1-.42,1.63-.47,1.62a1.22,1.22,0,0,1,0-.45,9.27,9.27,0,0,1,.26-1.24,10.78,10.78,0,0,1,2.28-4.06,14.52,14.52,0,0,1,5.7-3.88,24.61,24.61,0,0,1,8.3-1.63,20.43,20.43,0,0,1,8.32,1.49,15,15,0,0,1,5.42,4.28,20.26,20.26,0,0,1,2.54,3.9,11.46,11.46,0,0,1,.5,1.16C396.35,137.67,396.4,137.81,396.38,137.82Z" style="fill:#e0e0e0"></path><rect x="117.97" y="259.77" width="3.11" height="92.74" transform="translate(239.05 612.27) rotate(180)" style="fill:#ebebeb"></rect><path d="M176.23,232.71a14.34,14.34,0,0,0-.06-18.89l-22.91-26L147.13,205c.42.28,17.84,19,17.84,19l-15,18.65a10.76,10.76,0,0,0-1.78,10.22l.68,2.74A6.6,6.6,0,0,0,158,260l4.21-1.89a.89.89,0,0,0,.38-1.3h0a.88.88,0,0,0-.74-.4h-5.71a2.61,2.61,0,0,1-2.52-2h0Z" style="fill:#ebebeb"></path><path d="M168.18,220.61c.12.1-.61,1-1.64,2.06s-1.85,1.84-2,1.75.54-1.1,1.58-2.13S168.07,220.51,168.18,220.61Z" style="fill:#ebebeb"></path><path d="M120.4,138.91a12,12,0,0,0-12,12.07c0,5.27.1,10.92.3,13.83.45,6.39,6.74,7,6.74,7s.51,6.75.46,8.45l15.4.06,1.11-29a12,12,0,0,0-12-12.47Z" style="fill:#ebebeb"></path><path d="M115.43,171.82a15.32,15.32,0,0,0,8.23-2.95s-1.82,4.72-8.08,4.52Z" style="fill:#e0e0e0"></path><path d="M145.57,181.75c-5.41-2.26-12.8-1.69-12.8-1.69l-15.73.18h-.13a13.58,13.58,0,0,0-13.81,16l2.06,11.36s-3.28,7.64,1.32,14.12a14.46,14.46,0,0,1,2.48,8.15l-4.35,19.63,43-.36-6.31-15.53,4.43-23.51,10.36,6.75,15-10.91-14.49-16.28c-5.41-5.87-7.45-7-11.08-7.91" style="fill:#e0e0e0"></path><path d="M144.91,246.53c6.31,7.35,9,17.29,9.22,27s-1.72,19.28-3.68,28.78l-7.38,35.88c-.35,1.67-1.26,3.79-3,3.59s-2.09-2.74-3.36-4.05c-1.66-1.72-4.59-.93-6.62.34s-4.09,3-6.48,2.76c-3-.28-5.3-3.63-8.34-3.39-3.35.28-5.35,4.79-8.7,4.62-2.69-.15-4.18-3.19-6.53-4.5-3.94-2.2-9.59.81-13.11-2-2-1.6-2.43-4.54-1.8-7s2.11-4.62,3.39-6.83c15.15-25.94,5.17-61.47,21.66-86.58" style="fill:#e0e0e0"></path><path d="M103.2,192.63c0-.15,12.31-.56,27.49-.9s27.49-.51,27.5-.36-12.3.55-27.49.9S103.21,192.78,103.2,192.63Z" style="fill:#f5f5f5"></path><path d="M105.81,206c0-.15,14.46-.53,32.3-.86s32.31-.46,32.31-.31-14.46.53-32.3.86S105.81,206.16,105.81,206Z" style="fill:#f5f5f5"></path><path d="M108.68,224.15c0-.15,7.63-.47,17.06-.71s17.06-.31,17.07-.16-7.64.47-17.06.71S108.69,224.3,108.68,224.15Z" style="fill:#f5f5f5"></path><path d="M108.15,238.94a5.81,5.81,0,0,1,1.34-.11l3.62-.13c3.06-.12,7.28-.36,11.93-.84s8.83-1.11,11.85-1.62l3.58-.61a6.31,6.31,0,0,1,1.32-.17,6,6,0,0,1-1.28.38c-.83.21-2,.48-3.55.78-3,.61-7.2,1.3-11.86,1.78s-8.91.66-12,.68c-1.53,0-2.78,0-3.63,0A7.27,7.27,0,0,1,108.15,238.94Z" style="fill:#f5f5f5"></path><path d="M102.15,254.69a13.77,13.77,0,0,1,1.83.09c1.17.1,2.86.2,5,.28a98.6,98.6,0,0,0,32.32-4.17c2-.61,3.62-1.14,4.72-1.54a11.31,11.31,0,0,1,1.74-.54,11.39,11.39,0,0,1-1.67.74c-1.08.46-2.68,1-4.68,1.7a89,89,0,0,1-16,3.61,89.94,89.94,0,0,1-16.42.58c-2.1-.13-3.8-.29-5-.45A11.86,11.86,0,0,1,102.15,254.69Z" style="fill:#f5f5f5"></path><path d="M101.67,272.17a1.84,1.84,0,0,1,.54,0l1.52.17c1.33.17,3.25.38,5.62.58s5.21.35,8.36.4,6.61-.05,10.23-.3,7.06-.71,10.17-1.19,5.89-1.07,8.21-1.62,4.19-1,5.47-1.39l1.49-.39a1.61,1.61,0,0,1,.53-.1,3.63,3.63,0,0,1-.5.2l-1.46.49c-1.26.43-3.12,1-5.44,1.56s-5.1,1.2-8.22,1.74-6.57,1-10.21,1.24-7.12.32-10.28.26-6-.27-8.39-.52-4.29-.51-5.61-.75l-1.51-.28A1.49,1.49,0,0,1,101.67,272.17Z" style="fill:#f5f5f5"></path><path d="M98.16,291.7c0-.05.63.43,1.85,1a16.31,16.31,0,0,0,5.51,1.55,28.34,28.34,0,0,0,8.5-.51c3.17-.58,6.6-1.57,10.32-2.19a53.92,53.92,0,0,1,19.14.37,55.13,55.13,0,0,1,5.64,1.42c.65.2,1.15.39,1.49.51a2.08,2.08,0,0,1,.51.22,20.1,20.1,0,0,1-2.06-.52c-1.32-.36-3.25-.83-5.65-1.26a56.57,56.57,0,0,0-19-.2c-3.67.6-7.11,1.58-10.32,2.15a27.83,27.83,0,0,1-8.63.39,15.81,15.81,0,0,1-5.57-1.74,10,10,0,0,1-1.33-.86A2.16,2.16,0,0,1,98.16,291.7Z" style="fill:#f5f5f5"></path><path d="M93.16,314.16a2,2,0,0,1,.5-.25,8.69,8.69,0,0,1,1.55-.51,14.89,14.89,0,0,1,6-.07,38.68,38.68,0,0,1,8.42,2.75c3.06,1.23,6.46,2.72,10.26,2.9a34.82,34.82,0,0,0,10.59-1.46,85.75,85.75,0,0,1,8.63-2,21.53,21.53,0,0,1,6-.14,13.52,13.52,0,0,1,1.59.3,2.31,2.31,0,0,1,.55.16c0,.05-.78-.11-2.17-.25a23.18,23.18,0,0,0-5.89.31c-2.47.4-5.34,1.21-8.56,2.07a34.64,34.64,0,0,1-10.74,1.51c-3.92-.19-7.37-1.73-10.42-3a40,40,0,0,0-8.3-2.83,15.08,15.08,0,0,0-5.86-.1C93.89,313.88,93.18,314.22,93.16,314.16Z" style="fill:#f5f5f5"></path><path d="M132.41,337a1.73,1.73,0,0,1,.07-.4c.07-.29.16-.68.27-1.18l1.07-4.5c.89-3.92,2.17-9.6,3.4-16.68a178.79,178.79,0,0,0,2.67-25.06,100.75,100.75,0,0,0-.68-14.85c-.55-5.15-1-10.49-1.48-16s-1-10.79-1.57-15.93-1.5-10-1.78-14.82a252.35,252.35,0,0,1,0-25.27,117.19,117.19,0,0,1,1.44-17c.35-2,.73-3.5,1-4.53l.33-1.15a2,2,0,0,1,.14-.39,2.38,2.38,0,0,1-.08.4l-.29,1.17c-.23,1-.58,2.55-.9,4.54a124.68,124.68,0,0,0-1.26,17c-.16,7.18-.54,15.75.12,25.22.29,4.74,1.21,9.65,1.81,14.8s1.11,10.48,1.58,15.95.93,10.8,1.47,15.94a101.55,101.55,0,0,1,.65,14.92,171.94,171.94,0,0,1-2.8,25.12C136.32,321.4,135,327.07,134,331c-.48,1.95-.88,3.46-1.16,4.48l-.33,1.16A2.21,2.21,0,0,1,132.41,337Z" style="fill:#f5f5f5"></path><path d="M104.51,340.14a2.35,2.35,0,0,1,.12-.4c.09-.28.23-.67.4-1.16.34-1,.93-2.5,1.55-4.46,1.33-3.87,3-9.56,4.84-16.66s3.63-15.65,5.12-25.22a223.69,223.69,0,0,0,2.78-31.35c0-5.59-.28-11-.45-16.32s-.36-10.37-.43-15.22c-.19-9.7.08-18.45.66-25.76a146.2,146.2,0,0,1,2.36-17.22c.37-2,.79-3.56,1-4.61.13-.51.22-.9.3-1.19l.11-.41a2.07,2.07,0,0,1-.06.42q-.09.43-.24,1.2c-.2,1.06-.59,2.61-.92,4.63a155.71,155.71,0,0,0-2.19,17.21c-.53,7.3-.75,16-.54,25.73.09,4.84.26,9.93.46,15.2s.48,10.73.46,16.34A219.93,219.93,0,0,1,117,292.32c-1.53,9.59-3.41,18.13-5.24,25.24s-3.62,12.77-5,16.63c-.65,1.95-1.27,3.42-1.65,4.43l-.45,1.14C104.57,340,104.51,340.15,104.51,340.14Z" style="fill:#f5f5f5"></path><path d="M147.54,180.7a17.29,17.29,0,0,0-.92,5.17,17.86,17.86,0,0,0,.9,5.61,27,27,0,0,0,3.07,6.27c1.35,2.1,2.81,4,4.14,5.7l3.53,4.57,2.34,3.11a6.71,6.71,0,0,1,.81,1.19,7.33,7.33,0,0,1-1-1.06l-2.48-3-3.62-4.5a68.07,68.07,0,0,1-4.21-5.72,26.3,26.3,0,0,1-3.08-6.42,17.35,17.35,0,0,1-.81-5.76,12.69,12.69,0,0,1,.7-3.86,7.08,7.08,0,0,1,.41-1A1.11,1.11,0,0,1,147.54,180.7Z" style="fill:#f5f5f5"></path><path d="M107.08,222.43a8.79,8.79,0,0,1-.17-1.64c-.07-1-.13-2.58-.14-4.47a110,110,0,0,1,3.75-29.25c.49-1.83.93-3.29,1.27-4.3a11.55,11.55,0,0,1,.57-1.54,8.22,8.22,0,0,1-.37,1.6c-.27,1-.65,2.5-1.1,4.33a131.2,131.2,0,0,0-3.74,29.16c0,1.88,0,3.41,0,4.47A9.63,9.63,0,0,1,107.08,222.43Z" style="fill:#f5f5f5"></path><path d="M89.16,335.38a.84.84,0,0,1,0-.27l-.1-.79A9.78,9.78,0,0,1,89,333a11.26,11.26,0,0,1,.09-1.77c.19-2.68,1.4-6.42,3.53-10.68s5-9.17,6.67-15.23,2.62-12.89,3.51-20.08c1.84-14.38,3.5-27.39,4.71-36.86.63-4.68,1.14-8.48,1.49-11.16.19-1.28.33-2.29.44-3,0-.32.09-.58.12-.79a1,1,0,0,1,.06-.26.92.92,0,0,1,0,.27c0,.21,0,.47-.07.79-.09.74-.2,1.76-.34,3.05-.31,2.68-.76,6.49-1.32,11.18-1.17,9.48-2.77,22.49-4.55,36.88-.89,7.19-1.77,14.09-3.57,20.15s-4.7,11-6.81,15.26a31.82,31.82,0,0,0-3.66,10.53A25.21,25.21,0,0,0,89.16,335.38Z" style="fill:#f5f5f5"></path><rect x="176.93" y="148.09" width="127.51" height="51.07" transform="translate(-10.74 15.96) rotate(-3.71)" style="fill:#ebebeb"></rect><path d="M207.27,181.9c.42,5.52-3.26,10.65-12.16,11.33A21.48,21.48,0,0,1,183,190.81l2.42-5.74a15.06,15.06,0,0,0,9.08,2.12c3.61-.28,5.72-2,5.52-4.5s-1.92-3.93-7.57-3.49l-8,.61.24-17.67,19-1.47.45,5.79-13,1,0,6,2.54-.2C202.87,172.52,206.84,176.38,207.27,181.9Z" style="fill:#f5f5f5"></path><path d="M218.67,175.19c-.8-10.28,4.45-16.56,12.11-17.15s13.82,4.8,14.61,15.09-4.41,16.56-12.12,17.15S219.46,185.48,218.67,175.19Zm19.46-1.5c-.55-7.08-3.27-9.83-6.87-9.55s-5.83,3.41-5.29,10.49,3.27,9.83,6.83,9.55S238.68,180.77,238.13,173.69Z" style="fill:#f5f5f5"></path><path d="M256.71,164.86c-.4-5.25,2.55-8.84,7.09-9.19s8,2.7,8.37,8-2.5,8.84-7,9.19S257.12,170.12,256.71,164.86Zm11-.85c-.26-3.34-1.68-4.84-3.64-4.69s-3.12,1.9-2.87,5.2,1.72,4.84,3.64,4.69S268,167.35,267.72,164Zm14.68-9.42,5.3-.41L268.82,187l-5.3.41Zm-3.35,23.33c-.41-5.25,2.54-8.84,7-9.19s8,2.74,8.41,8-2.54,8.84-7.08,9.19S279.46,183.18,279.05,177.92Zm11-.84c-.26-3.3-1.68-4.85-3.64-4.7s-3.12,1.86-2.87,5.2,1.72,4.84,3.64,4.69S290.26,180.37,290,177.08Z" style="fill:#f5f5f5"></path><path d="M202.49,182.1l.89-2.38a7.76,7.76,0,0,0,4.46,1.09c1.82-.12,2.51-.78,2.46-1.59-.17-2.48-7.75-.26-8.08-5.18-.16-2.25,1.53-4.24,5.3-4.5a8.93,8.93,0,0,1,4.67.86l-.78,2.39a7.57,7.57,0,0,0-3.74-.79c-1.82.12-2.47.85-2.42,1.69.17,2.44,7.75.23,8.08,5.09.15,2.22-1.56,4.23-5.34,4.49A9.49,9.49,0,0,1,202.49,182.1Z" style="fill:#fff"></path><path d="M233.68,178.46l-6.15.41-1,2.92-3.14.21,5-13.64,3-.21L238.26,181l-3.22.21Zm-1.12-2.27-2.45-4.92-1.75,5.21Z" style="fill:#fff"></path><path d="M248.2,167l3.07-.2.72,10.74,6.64-.45.17,2.5-9.7.66Z" style="fill:#fff"></path><path d="M280.07,175.7l.17,2.46-10.26.7-.89-13.25,10-.67.16,2.46-7,.47.19,2.87,6.15-.41.16,2.38-6.15.42.21,3.06Z" style="fill:#fff"></path><path d="M223,163.57a2.3,2.3,0,1,1,2.47,2A2.16,2.16,0,0,1,223,163.57Zm3.59-.31a1.31,1.31,0,1,0-1.19,1.45A1.28,1.28,0,0,0,226.61,163.26Z" style="fill:#e0e0e0"></path><path d="M232.15,161.47l.09,1.11,1.94-.17.06.78-1.93.16.13,1.52-1,.09-.35-4.18,3.15-.27.07.78Z" style="fill:#e0e0e0"></path><path d="M238.94,160.9l.1,1.1,1.93-.16.06.77-1.93.17.13,1.52-1,.08-.35-4.18,3.16-.26.06.77Z" style="fill:#e0e0e0"></path><path d="M248.22,162.75l.07.78-3.23.27-.36-4.17,3.16-.27.06.78-2.19.18.08.91,1.93-.17.07.76-1.94.16.08,1Z" style="fill:#e0e0e0"></path><path d="M254.7,163l-.9-1.1h-.05l-.84.07.1,1.16-1,.08-.35-4.17,1.8-.16c1.12-.09,1.87.43,1.94,1.36a1.36,1.36,0,0,1-.74,1.4l1.05,1.26Zm-1.19-3.31-.79.06.12,1.46.79-.07c.59,0,.86-.35.83-.8S254.1,159.63,253.51,159.68Z" style="fill:#e0e0e0"></path><rect x="356.42" y="424.23" width="44.05" height="13.43" style="fill:#e0e0e0"></rect><path d="M428,424.23a.77.77,0,0,1,0-.25c0-.19,0-.42,0-.7,0-.64,0-1.53,0-2.66,0-2.34-.06-5.66-.1-9.82l.18.17-39.49.09.26-.26h0v6.87c0,2.24,0,4.43,0,6.55l-.25-.25,28.19.11,8.27.07,2.23,0h.59l.21,0a6.5,6.5,0,0,1-.74,0l-2.17,0-8.21.07-28.37.12h-.25v-.25c0-2.12,0-4.31,0-6.55v-6.87h0l.26-.26,39.49.09h.17v.17c0,4.2-.07,7.56-.1,9.92,0,1.12,0,2,0,2.63l0,.66A1.76,1.76,0,0,1,428,424.23Z" style="fill:#e0e0e0"></path><path d="M137.09,410.8s0-.09,0-.25v-.7c0-.65,0-1.53-.05-2.66,0-2.34,0-5.67-.09-9.82l.17.17-39.48.09c-.24.23.31-.32.25-.26h0V410.8l-.26-.26,28.2.12,8.27.07,2.23,0,.58,0c.14,0,.21,0,.21,0a6.39,6.39,0,0,1-.73,0l-2.18,0-8.21.07-28.37.12h-.25v-6.81c0-1.12,0-2.25,0-3.4v-3.45h0c0,.05.5-.5.27-.26l39.48.08h.18v.17c0,4.2-.07,7.56-.09,9.92,0,1.11,0,2,0,2.62,0,.27,0,.49,0,.67A.89.89,0,0,1,137.09,410.8Z" style="fill:#e0e0e0"></path><path d="M377.2,46.06a.77.77,0,0,1,0-.25l0-.7c0-.64,0-1.53,0-2.66,0-2.33-.06-5.66-.1-9.82l.17.17-39.48.09c-.23.24.31-.32.26-.26h0v6.87c0,2.24,0,4.43,0,6.55l-.25-.25,28.19.12,8.27.07,2.23,0H377l.21,0a6.72,6.72,0,0,1-.74,0l-2.18,0-8.21.08-28.36.11h-.25v-.25c0-2.12,0-4.31,0-6.55V32.64h0l.26-.26,39.48.09h.18v.17c0,4.2-.07,7.57-.1,9.92,0,1.12,0,2,0,2.63,0,.27,0,.49,0,.67A1.48,1.48,0,0,1,377.2,46.06Z" style="fill:#e0e0e0"></path><rect x="61.52" y="433.59" width="39.49" height="13.43" style="fill:#e0e0e0"></rect><rect x="129.78" y="26.33" width="39.49" height="13.43" style="fill:#f5f5f5"></rect><rect x="154.92" y="39.35" width="39.49" height="13.43" style="fill:#ebebeb"></rect></g><g id="freepik--Floor--inject-80"><path d="M474.53,472.05c0,.15-99,.27-221,.27s-221.06-.12-221.06-.27,98.95-.26,221.06-.26S474.53,471.91,474.53,472.05Z" style="fill:#263238"></path></g><g id="freepik--Plant--inject-80"><path d="M401.36,431a8.15,8.15,0,0,0-5.66,3,14.52,14.52,0,0,0-2.84,5.85c-1.06,4.1-.34,8.93.86,13,4.41-1.62,7.1-6.37,8.32-8.86,1.92-3.95,3-12.24-.68-12.94" style="fill:#FF725E"></path><path d="M387.39,457.76a7,7,0,0,0,.26-7,9.21,9.21,0,0,0-5.6-4.42,3.86,3.86,0,0,0-3.28.18,3,3,0,0,0-1.12,2.8,6,6,0,0,0,1.3,2.85c2.18,2.9,4.82,5.31,8.44,5.57" style="fill:#FF725E"></path><path d="M387,471.44a6.07,6.07,0,0,0,.19-.85c.11-.61.26-1.39.43-2.34a24.33,24.33,0,0,0,.42-7.83,14.92,14.92,0,0,0-3-7.24,10.45,10.45,0,0,0-1.69-1.68c-.22-.18-.41-.29-.53-.38l-.2-.11a16.63,16.63,0,0,1,2.25,2.31,15.47,15.47,0,0,1,2.84,7.14,26.58,26.58,0,0,1-.33,7.76c-.15,1-.27,1.79-.34,2.35A4.34,4.34,0,0,0,387,471.44Z" style="fill:#263238"></path><path d="M400,437.19a1.59,1.59,0,0,0-.18.33l-.44,1c-.39.86-.93,2.11-1.58,3.67-1.31,3.11-3.06,7.43-4.88,12.25s-3.37,9.21-4.44,12.41c-.54,1.6-1,2.9-1.25,3.8l-.32,1a1.6,1.6,0,0,0-.09.36,1.45,1.45,0,0,0,.15-.34l.37-1c.33-.93.79-2.21,1.34-3.77,1.13-3.18,2.71-7.56,4.53-12.38s3.53-9.14,4.79-12.27c.62-1.54,1.12-2.8,1.49-3.71l.39-1A1.65,1.65,0,0,0,400,437.19Z" style="fill:#263238"></path><path d="M392.2,462.35a16.27,16.27,0,0,1,12.56-8c1.31-.1,2.89.1,3.48,1.27s-.17,2.58-1.06,3.55a13.9,13.9,0,0,1-15,3.49" style="fill:#FF725E"></path><path d="M402.8,457.92a3.42,3.42,0,0,0-.82,0,8.34,8.34,0,0,0-1,.12,12.53,12.53,0,0,0-1.25.25,13.3,13.3,0,0,0-1.49.43,16,16,0,0,0-1.66.64,16.67,16.67,0,0,0-6.36,5c-.37.51-.73,1-1,1.47s-.53.94-.75,1.36-.36.82-.51,1.17a6.14,6.14,0,0,0-.31.91,3.75,3.75,0,0,0-.21.79c.07,0,.37-1.11,1.23-2.77a13.51,13.51,0,0,1,.77-1.32,15.08,15.08,0,0,1,1-1.43,17.09,17.09,0,0,1,6.26-4.92,17.29,17.29,0,0,1,1.62-.66,14.12,14.12,0,0,1,1.46-.46C401.63,458.05,402.8,458,402.8,457.92Z" style="fill:#263238"></path></g><g id="freepik--Character--inject-80"><path d="M244,329.66c-.71,1.56,22.67,57.89,25.2,61.59a55.86,55.86,0,0,0,5.12,6.74L297.88,462l14.93-2.78s-6.48-50.8-12.08-63.23a218.23,218.23,0,0,1-10.3-26.32c-1.48-4.95-7.07-40-7.07-40Z" style="fill:#ffbe9d"></path><path d="M295.5,460.48s-17.94,16.1-16.64,19.85l38.23-16-5-11.78C307.88,457.39,302.15,459.32,295.5,460.48Z" style="fill:#FF725E"></path><g style="opacity:0.6000000000000001"><path d="M309.5,456.73a1.69,1.69,0,0,1,1.82,1.33,1.63,1.63,0,0,1-1.3,1.82,1.78,1.78,0,0,1-1.92-1.42c-.05-.83.74-1.82,1.56-1.74" style="fill:#fff"></path></g><g style="opacity:0.6000000000000001"><path d="M317.09,464.37l-1.31-3.1-36.22,16.49s-1.4,1.45-.7,2.57Z" style="fill:#fff"></path></g><path d="M294,461.86c.09.19,1.05-.12,2.22.1s2,.8,2.13.65-.59-1.11-2-1.35S293.88,461.71,294,461.86Z" style="fill:#263238"></path><path d="M291.19,464.55c0,.2,1,.18,1.94.7s1.49,1.29,1.68,1.2-.14-1.19-1.35-1.82S291.12,464.37,291.19,464.55Z" style="fill:#263238"></path><path d="M291.16,469.93c.18,0,.06-1.07-.85-1.9s-1.95-.86-2-.67.75.51,1.48,1.19S291,470,291.16,469.93Z" style="fill:#263238"></path><path d="M294,461.55a2.8,2.8,0,0,1-1.35,0,3.67,3.67,0,0,1-1.43-.47,2.07,2.07,0,0,1-.69-.64,1.09,1.09,0,0,1-.08-1.12.86.86,0,0,1,.49-.42,1.06,1.06,0,0,1,.59,0,3.23,3.23,0,0,1,.79.46,5.71,5.71,0,0,1,1.1,1c.55.65.65,1.19.59,1.21s-.29-.43-.86-1a7.67,7.67,0,0,0-1.1-.84c-.43-.31-1-.6-1.14-.21s.16.85.57,1.11a3.84,3.84,0,0,0,1.24.5A5,5,0,0,1,294,461.55Z" style="fill:#263238"></path><path d="M294.16,461.62c-.08,0,.08-.66.68-1.45a4.06,4.06,0,0,0,.73-1.42c.13-.53-.11-1.27-.68-1.35a1.18,1.18,0,0,0-1.26.94,3.08,3.08,0,0,0,0,1.57,5.06,5.06,0,0,1,.26,1.57,5.21,5.21,0,0,1-.62-1.47,3.27,3.27,0,0,1-.12-1.8,1.87,1.87,0,0,1,.59-1,1.54,1.54,0,0,1,1.22-.35,1.32,1.32,0,0,1,1,.83,1.81,1.81,0,0,1,.08,1.14,4.12,4.12,0,0,1-.91,1.55C294.47,461.12,294.22,461.64,294.16,461.62Z" style="fill:#263238"></path><path d="M243,115.1a3.31,3.31,0,0,1-1.28-5.71,2.31,2.31,0,1,1,2.41-4,2.69,2.69,0,0,1,4.3-2.3,3.2,3.2,0,0,1,5.1,2.19,2.67,2.67,0,0,1,4.93,1.3c1.08-.25,2.37-.44,3.18.31s.74,1.91.65,3a17.33,17.33,0,0,1-.57,3.66,8.5,8.5,0,0,1-3.37,4.49,5,5,0,0,1-5.91.62" style="fill:#263238"></path><path d="M259.35,107.29a2.66,2.66,0,0,0-.9-.82,1.78,1.78,0,0,0-1.33-.13,1.86,1.86,0,0,0-1.2,1.21l-.27,1-.1-1a2.61,2.61,0,0,0-1.79-2.14,2.57,2.57,0,0,0-2.9,1.24l-.11.22-.22-.11a2.32,2.32,0,0,0-.92-.24,2.49,2.49,0,0,0-2.54,1.67,2.64,2.64,0,0,0,.71,2.68l.56.48-.72-.12a2,2,0,0,0-1.92.84,1.86,1.86,0,0,0-.23,1.65,2.75,2.75,0,0,0,.9,1.25,1,1,0,0,1-.39-.19,2.19,2.19,0,0,1-.56-2.9,2.34,2.34,0,0,1,2.26-1.06l-.17.36a3,3,0,0,1-.89-3.13,3,3,0,0,1,3-2,2.77,2.77,0,0,1,1.11.29l-.32.11a2.92,2.92,0,0,1,5.5,1.09l-.37,0a2.13,2.13,0,0,1,1.48-1.39,2,2,0,0,1,2.2.92A.68.68,0,0,1,259.35,107.29Z" style="fill:#455a64"></path><path d="M243.58,112.86a1.28,1.28,0,0,1-.31.2,6.71,6.71,0,0,1-1,.42,2.59,2.59,0,0,1-1.69,0,1.86,1.86,0,0,1-.88-.64,1.36,1.36,0,0,1-.29-1.22l.24.22a1.74,1.74,0,1,1-1.06-3.32l.07.45a2,2,0,0,1-1.87-1.76,2.14,2.14,0,0,1,1.6-2.21,2.52,2.52,0,0,1,1.22-.07l-.17.45a2.32,2.32,0,1,1,3-3.32l-.32,0a2.63,2.63,0,0,1,2.67-.68,2.48,2.48,0,0,1,1.62,2.84,1,1,0,0,1-.18.44,3,3,0,0,0-.14-1.71,2.17,2.17,0,0,0-1.39-1.26,2.32,2.32,0,0,0-2.28.64l-.18.2-.14-.22a2,2,0,0,0-2.8-.35,1.94,1.94,0,0,0,.35,3l1.37.74-1.53-.28a2,2,0,0,0-1,.06,1.66,1.66,0,0,0-1.27,1.68,1.49,1.49,0,0,0,1.37,1.36l2-.08-1.93.53a1.38,1.38,0,0,0-.86,1.8,1.43,1.43,0,0,0,1.68.74l.33-.12-.09.34a1.37,1.37,0,0,0,.92,1.49,2.48,2.48,0,0,0,1.52,0C243.11,113,243.56,112.81,243.58,112.86Z" style="fill:#263238"></path><path d="M220.59,146.64a4.65,4.65,0,0,1-2.79-5.54,5.61,5.61,0,0,1-.7-8.13,3.94,3.94,0,0,1,2.76-6.77,5.33,5.33,0,0,1,6.27-6.81,4.88,4.88,0,0,1,7.85-4.32,7,7,0,0,1,10.52.26,6.61,6.61,0,0,1,8.87,3.31c2.09-1.72,5.52-.85,7.2,1.28s1.93,5.09,1.55,7.78a4.49,4.49,0,0,1,.19,7.81,7.72,7.72,0,0,1-2.05,10.54,8.89,8.89,0,0,1-4.89,8.58" style="fill:#263238"></path><path d="M253.55,132.93l1.32-3.16-19.82-4.41c-6.13-.84-13,5.11-13.55,11.27-.64,6.84-1.16,15.22-.5,20.36,1.31,10.33,9.15,11.89,9.15,11.89L229.79,185l22.68.47Z" style="fill:#ffbe9d"></path><path d="M225,143.58a1.33,1.33,0,0,0,1.23,1.37,1.26,1.26,0,0,0,1.4-1.15,1.32,1.32,0,0,0-1.23-1.37A1.27,1.27,0,0,0,225,143.58Z" style="fill:#263238"></path><path d="M223.54,141.07c.16.17,1.18-.53,2.6-.49s2.44.79,2.6.62-.08-.39-.52-.73a3.63,3.63,0,0,0-2.07-.71,3.5,3.5,0,0,0-2.08.6C223.62,140.68,223.47,141,223.54,141.07Z" style="fill:#263238"></path><path d="M237.8,144.51c.16.18,1.18-.53,2.6-.48s2.44.79,2.6.62-.08-.39-.53-.73a3.5,3.5,0,0,0-2.07-.71,3.42,3.42,0,0,0-2.07.6C237.88,144.13,237.72,144.43,237.8,144.51Z" style="fill:#263238"></path><path d="M232,152.13a9.52,9.52,0,0,0-2.29-.49c-.36,0-.71-.13-.76-.38a1.8,1.8,0,0,1,.28-1.06c.36-.87.75-1.78,1.15-2.73,1.61-3.88,2.79-7.08,2.63-7.14s-1.58,3-3.2,6.91c-.38,1-.75,1.87-1.11,2.74a2.1,2.1,0,0,0-.23,1.42.93.93,0,0,0,.58.55,2.09,2.09,0,0,0,.61.1A9,9,0,0,0,232,152.13Z" style="fill:#263238"></path><path d="M230.16,168.9a27.26,27.26,0,0,0,14.23-3.25s-3.69,7.09-14.31,5.82Z" style="fill:#eb996e"></path><path d="M237.22,141.61c.18.37,1.57,0,3.25.07s3.06.33,3.24,0c.09-.18-.18-.51-.76-.83a3.38,3.38,0,0,0-2.48-.59,5.4,5.4,0,0,0-2.47.56C237.41,141.1,237.14,141.43,237.22,141.61Z" style="fill:#263238"></path><path d="M223.74,136.59c.25.33,1.23,0,2.41,0s2.17.22,2.4-.11c.1-.17-.06-.49-.49-.8a3.4,3.4,0,0,0-1.95-.53,3.29,3.29,0,0,0-1.92.64C223.77,136.1,223.63,136.43,223.74,136.59Z" style="fill:#263238"></path><path d="M243.71,125.72a5.07,5.07,0,0,1-1.34,2.14,1.74,1.74,0,0,1-2.31,0,2.3,2.3,0,0,1-3.53-.46,3.12,3.12,0,0,1-3.78.14l-3.1.49c-1.12.17-2.51.24-3.13-.71-.15-.22-.25-.49-.48-.62a1.5,1.5,0,0,0-.79,0,2.64,2.64,0,0,1-2.23-1.22,7.52,7.52,0,0,1-1-2.45c-.37-1.31-.63-3,.47-3.8a3.5,3.5,0,0,1,1.51-.49,7.75,7.75,0,0,1,3.25,0,5.69,5.69,0,0,1,3.05,2.51,1.42,1.42,0,0,1,1-1.72,2.84,2.84,0,0,1,2.14.32,5.67,5.67,0,0,1,2.27,2.18,4.66,4.66,0,0,1,4,2.79,3.39,3.39,0,0,1,2.66-.32,1.22,1.22,0,0,1,.77.55.54.54,0,0,1-.32.77" style="fill:#263238"></path><path d="M233.76,125.73a3.39,3.39,0,0,1-5.42,3.64,3.13,3.13,0,0,1-3.64,1.8,4.92,4.92,0,0,1-2.77,4.17,3.82,3.82,0,0,1-.1,2.8,2.36,2.36,0,0,1-1.24,1.3,2.71,2.71,0,0,1-2.11-.27,3.81,3.81,0,0,1-2-2.23,2.19,2.19,0,0,1,1.13-2.59,8.25,8.25,0,0,1-1.88-3.07,2.64,2.64,0,0,1,0-2,1.16,1.16,0,0,1,1.72-.46,3,3,0,0,1,3.47-4.21,2.51,2.51,0,0,1,4.27-1.6" style="fill:#263238"></path><path d="M246.11,125.32a2.57,2.57,0,0,1,2.48-2.33,6.43,6.43,0,0,1,3.53,1.09,4.38,4.38,0,0,1,4.93-1c1.62.76,2.59,2.42,3.88,3.65a9.07,9.07,0,0,1,2,2,1.85,1.85,0,0,1-.49,2.5,3.2,3.2,0,0,1,.59,5.59c-.3.21-.66.39-.8.73a1.39,1.39,0,0,0,0,.9,33,33,0,0,1,1.29,4.18,3.79,3.79,0,0,1-1.47,3.86c-.34.19-.75.34-.91.68a1.2,1.2,0,0,0,0,.75,13.2,13.2,0,0,0,.9,2.33,3.43,3.43,0,0,1,.23,2.43,1.57,1.57,0,0,1-2,1,5.13,5.13,0,0,1-.8,4.73c-1.1,1.25-4.51,1.64-6.43.31l.1-4.72c.31-.81-.71-5.3-.12-6.16,0,0,1.22,3.14-1.92,2.44-1.05.22-2.85-2.93-2.92-4a2.86,2.86,0,0,1,1.61-2.58,4.82,4.82,0,0,1-.87-6.13,2.58,2.58,0,0,1-.21-5,5.3,5.3,0,0,1-3-7.32" style="fill:#263238"></path><path d="M261.4,127.18s.16.1.34.37a2.79,2.79,0,0,1,.4,1.38,2.67,2.67,0,0,1-.87,2,2.92,2.92,0,0,1-2.84.6l.27-.24a2.07,2.07,0,1,1-4.09.6l.47,0a2.09,2.09,0,0,1-1.38,1.42,2,2,0,0,1-1.32,0,1.85,1.85,0,0,1-1-.85,2.1,2.1,0,0,1,.15-2.33l.28.36a5.22,5.22,0,0,1-4.15.09,4.9,4.9,0,0,1-2.44-2.18,5,5,0,0,1-.61-2,1.85,1.85,0,0,1,.06-.76,6.26,6.26,0,0,0,.81,2.67,4.7,4.7,0,0,0,2.33,1.95,4.9,4.9,0,0,0,3.8-.14l1-.47-.68.82a1.65,1.65,0,0,0-.09,1.8,1.39,1.39,0,0,0,1.72.63,1.58,1.58,0,0,0,1.06-1.07l.35-1.44.13,1.48a1.69,1.69,0,0,0,2,1.43,1.74,1.74,0,0,0,1.24-1.91l-.08-.36.35.12a2.59,2.59,0,0,0,2.48-.45,2.48,2.48,0,0,0,.85-1.81A3.26,3.26,0,0,0,261.4,127.18Z" style="fill:#455a64"></path><path d="M223.48,119.21a1.32,1.32,0,0,0-.15.58.76.76,0,0,0,.3.58.77.77,0,0,0,.82,0l.43-.26-.23.46a2,2,0,0,0,.37,2.22,1.94,1.94,0,0,0,2.66,0l.26-.26.12.35a3.58,3.58,0,0,0,5.87,1.32l.16-.16.17.15a6.08,6.08,0,0,0,2.87,1.53,6.66,6.66,0,0,0,2.6.1,10.08,10.08,0,0,0,2.24-.73,1.77,1.77,0,0,1-.52.39,6,6,0,0,1-1.67.63,6.62,6.62,0,0,1-2.74,0,6.35,6.35,0,0,1-3.1-1.58h.32a4,4,0,0,1-6.63-1.5l.38.09a2.29,2.29,0,0,1-3.62-2.71l.21.2a1,1,0,0,1-1.11-.12.93.93,0,0,1-.32-.76C223.22,119.33,223.48,119.19,223.48,119.21Z" style="fill:#455a64"></path><path d="M241.92,114.15s-.21-.1-.59-.14a1.86,1.86,0,0,0-1.44.48,2.42,2.42,0,0,0-.61,2.14,5.85,5.85,0,0,0,1.33,2.59l-.37.32h0c-.22-.26-.81-.08-1,.25a1.66,1.66,0,0,0-.05,1.26,6,6,0,0,0,1.17,2.1,12.61,12.61,0,0,0,1.74,1.48,1.42,1.42,0,0,1-.6-.21,5.6,5.6,0,0,1-1.39-1,5.74,5.74,0,0,1-1.35-2.21,2.07,2.07,0,0,1,.06-1.63,1.27,1.27,0,0,1,.76-.58,1,1,0,0,1,1,.23l0,0-.37.31a6,6,0,0,1-1.4-2.83,2.72,2.72,0,0,1,.83-2.46,2,2,0,0,1,1.71-.41C241.78,113.93,241.93,114.13,241.92,114.15Z" style="fill:#455a64"></path><path d="M258.45,118.88a6.87,6.87,0,0,0-1.78-.54,3.71,3.71,0,0,0-2,.35,3.78,3.78,0,0,0-1.76,1.79l-.18.41-.23-.39a2.14,2.14,0,0,0-4,.93l0,.28-.27-.08a3,3,0,0,0-2.42.42,2.84,2.84,0,0,0-1.13,1.62,4.43,4.43,0,0,0,0,1.85s-.13-.14-.23-.46a3,3,0,0,1-.07-1.45,3.1,3.1,0,0,1,1.19-1.89,3.32,3.32,0,0,1,2.78-.54l-.3.21a2.6,2.6,0,0,1,4.83-1.13l-.41,0a4,4,0,0,1,2-2,3.81,3.81,0,0,1,2.19-.28,3.54,3.54,0,0,1,1.34.5C258.34,118.73,258.46,118.86,258.45,118.88Z" style="fill:#455a64"></path><path d="M252,145.63c.15-.07,5.94-2,6,4s-6,4.81-6,4.64S252,145.63,252,145.63Z" style="fill:#ffbe9d"></path><path d="M253.84,151.94s.11.07.28.15a1,1,0,0,0,.78,0,2.57,2.57,0,0,0,1.18-2.33,3.43,3.43,0,0,0-.31-1.49,1.21,1.21,0,0,0-.79-.79.52.52,0,0,0-.61.29c-.08.17,0,.29-.07.3s-.13-.1-.09-.35a.66.66,0,0,1,.23-.37.81.81,0,0,1,.58-.16,1.48,1.48,0,0,1,1.1.92,3.44,3.44,0,0,1,.37,1.66,2.7,2.7,0,0,1-1.49,2.6,1.1,1.1,0,0,1-1-.15C253.86,152.09,253.82,152,253.84,151.94Z" style="fill:#eb996e"></path><path d="M257.58,158.88c-.55-1.82-1-3.66-1.45-5.51a1,1,0,0,0-.95-.75h0a1,1,0,0,0-.92.81c-.3,1.95-.59,3.79-.9,5.78a1.34,1.34,0,0,0,1.29,1.8,14.34,14.34,0,0,0,1.58.34,1.62,1.62,0,0,0,1-.1,1.29,1.29,0,0,0,.6-1.09A3.78,3.78,0,0,0,257.58,158.88Z" style="fill:#FF725E"></path><path d="M234.27,156.38a1.61,1.61,0,0,1,2-2.4,2.53,2.53,0,0,1,1,.93,1.71,1.71,0,0,1,.38,1.32,1.41,1.41,0,0,1-.74.85,2.13,2.13,0,0,1-1.71.14A1.86,1.86,0,0,1,234,156" style="fill:#eb996e"></path><path d="M237.17,153.74c.1,0,.14.32,0,.77a3.15,3.15,0,0,1-2.83,2.09c-.48,0-.75-.12-.74-.22s1.06-.31,2-1S237,153.68,237.17,153.74Z" style="fill:#263238"></path><path d="M247.2,140.27a2.74,2.74,0,0,1-1-.16,4.35,4.35,0,0,1-2.38-1.49,2.84,2.84,0,0,1-.6-1.91,2.29,2.29,0,0,1,1.33-1.9,1.32,1.32,0,0,1,1.38.13.82.82,0,0,1,.24.81.87.87,0,0,1-.64.55,2.63,2.63,0,0,1-2.57-1,2.51,2.51,0,0,1-.25-2.72,2.72,2.72,0,0,1,.89-1,1.77,1.77,0,0,1,1.3-.34.88.88,0,0,1,.35.17.67.67,0,0,1,.24.34.7.7,0,0,1-.19.76.61.61,0,0,1-.78-.05,1.52,1.52,0,0,1-.36-.47,7.94,7.94,0,0,1-.75-1.8,3.54,3.54,0,0,1-.19-1.62,1.66,1.66,0,0,1,.75-1c.63-.34,1-.13,1-.12a2,2,0,0,0-.91.29,1.42,1.42,0,0,0-.57.9,3.47,3.47,0,0,0,.25,1.46,8.58,8.58,0,0,0,.77,1.68c.15.3.42.49.48.39s.07-.16,0-.26-.1-.15-.24-.19a1.83,1.83,0,0,0-1.63,1.11,2,2,0,0,0,.2,2.16,2.13,2.13,0,0,0,2,.8c.34-.08.37-.29.19-.5a.86.86,0,0,0-.86,0,1.84,1.84,0,0,0-1.08,1.49,2.48,2.48,0,0,0,.47,1.66,4.38,4.38,0,0,0,2.14,1.51A7,7,0,0,1,247.2,140.27Z" style="fill:#263238"></path><polygon points="351.52 296.95 316.3 360.55 372.29 402.13 414.35 322.45 351.52 296.95" style="fill:#455a64"></polygon><path d="M351,312.9a.67.67,0,0,1-.23,0l-.69-.14-2.61-.59-9.63-2.28-32-7.77.32-.22-.38,2.6c-.57,3.87-1.12,7.63-1.64,11.19l-.05-.19c6.45,8.68,12.08,16.23,16.13,21.66l4.68,6.37,1.23,1.72a4.79,4.79,0,0,1,.41.61,3.37,3.37,0,0,1-.48-.56c-.32-.41-.76-1-1.3-1.67-1.15-1.5-2.78-3.62-4.8-6.27l-16.28-21.55-.06-.09v-.1c.52-3.56,1.07-7.33,1.63-11.2l.38-2.59,0-.29.28.07,32,7.93,9.59,2.43,2.59.69.67.19Z" style="fill:#263238"></path><path d="M366.51,320.78l.24.1.73.35,2.86,1.4,10.72,5.3.17.08-.1.17c-5.66,9.56-13.88,23.45-23,38.9l-.38.63-.14.23-.22-.14-13.64-8.27h0l0,0a.39.39,0,0,1-.1-.29l0-.11.06-.17.12-.29.27-.55.56-1.07L345.8,355l2.31-4,4.4-7.33,7.38-12.09,6.62-10.79a2.78,2.78,0,0,1-.36.78c-.27.5-.69,1.23-1.24,2.17-1.12,1.9-2.74,4.61-4.75,8l-7.29,12.15c-2.76,4.62-5.86,9.87-9,15.41l.11-.19,13.65,8.26-.36.09.38-.64c9.19-15.41,17.47-29.27,23.16-38.81l.07.24-10.52-5.43-2.86-1.49-.75-.39Z" style="fill:#455a64"></path><polygon points="354.3 304.3 313.83 364.6 366.12 410.68 414.75 334.96 354.3 304.3" style="fill:#263238"></polygon><path d="M352.44,320.13l-.23-.05-.67-.2-2.55-.81L339.58,316l-31.24-10.42.34-.19c-.19.8-.39,1.66-.59,2.52-.89,3.81-1.77,7.52-2.59,11l0-.19,14.24,22.91,4.13,6.72,1.09,1.82a5,5,0,0,1,.35.64,3.9,3.9,0,0,1-.43-.6c-.29-.43-.67-1-1.16-1.77l-4.25-6.64L305,319l-.06-.09,0-.1,2.57-11c.21-.86.41-1.72.59-2.52l.07-.28.27.09,31.19,10.58,9.35,3.23,2.53.9.65.25C352.37,320.09,352.45,320.12,352.44,320.13Z" style="fill:#263238"></path><path d="M367.22,329.27a.86.86,0,0,1,.23.12l.7.41,2.73,1.63,10.24,6.18.16.09-.11.16L355,374.61l-.43.6-.15.21-.22-.15-12.89-9.38h0l0,0a.38.38,0,0,1-.07-.29l0-.11.07-.17.15-.28.31-.53.65-1,1.33-2c.9-1.28,1.77-2.53,2.64-3.75l5-6.93,8.37-11.4,7.51-10.17a2.57,2.57,0,0,1-.43.74c-.31.48-.78,1.17-1.41,2.06L360,339.63l-8.28,11.46c-3.15,4.36-6.68,9.33-10.26,14.58l.13-.19,12.9,9.37-.36.06.43-.6,26.35-36.66.05.26-10-6.29-2.73-1.72-.71-.46Z" style="fill:#455a64"></path><path d="M206.05,307.41a6.25,6.25,0,0,1-.86,1.06l-2.47,2.76c-2.08,2.33-4.91,5.59-8,9.26s-5.74,7-7.67,9.5l-2.27,2.93a6.89,6.89,0,0,1-.88,1,6.88,6.88,0,0,1,.71-1.16c.49-.73,1.22-1.77,2.15-3,1.85-2.53,4.5-5.95,7.56-9.62s6-6.89,8.1-9.17c1.07-1.14,2-2,2.59-2.65A7.66,7.66,0,0,1,206.05,307.41Z" style="fill:#263238"></path><polygon points="163.36 323.67 135.34 375.75 207.33 404.55 224.27 349.95 163.36 323.67" style="fill:#455a64"></polygon><path d="M204.23,317.19a5.26,5.26,0,0,1-.61,1.05l-1.8,2.78c-1.52,2.35-3.59,5.6-5.78,9.26s-4.08,7-5.43,9.47l-1.6,2.9a5.24,5.24,0,0,1-.64,1,5.77,5.77,0,0,1,.46-1.13c.33-.71.82-1.73,1.45-3,1.27-2.5,3.11-5.9,5.31-9.57s4.32-6.9,5.93-9.19c.8-1.15,1.46-2.07,1.93-2.69A6.16,6.16,0,0,1,204.23,317.19Z" style="fill:#263238"></path><polygon points="166.46 336.7 146.83 392.49 222.41 409.8 230.7 353.24 166.46 336.7" style="fill:#263238"></polygon><path d="M202.56,338.28,199,354.85l-7.15,36.8-12.06,67.69c5.46,3.72,8.08,4.39,14.6,3.71A353.61,353.61,0,0,0,220,388.77L241.55,340l-25.46-11.08Z" style="fill:#ffbe9d"></path><path d="M179.13,456.12s-22.4,1.22-23.64,4.69l37,10.72,3.65-11.93C190.32,460.62,184.62,459.16,179.13,456.12Z" style="fill:#FF725E"></path><g style="opacity:0.6000000000000001"><path d="M191.46,461.57a1.58,1.58,0,0,1,.55,2,1.53,1.53,0,0,1-2,.56,1.66,1.66,0,0,1-.57-2.15,1.58,1.58,0,0,1,2.16-.35" style="fill:#fff"></path></g><g style="opacity:0.6000000000000001"><path d="M192.51,471.53l.77-3-35.78-9.14s-1.86.24-2,1.45Z" style="fill:#fff"></path></g><path d="M177.23,456.25c0,.18.83.52,1.55,1.36s1,1.74,1.16,1.71.23-1.14-.66-2.14S177.24,456.07,177.23,456.25Z" style="fill:#263238"></path><path d="M173.63,456.56c-.09.17.6.7,1,1.64s.33,1.81.51,1.85.6-.95.09-2.11S173.69,456.39,173.63,456.56Z" style="fill:#263238"></path><path d="M170.47,460.44c.15.09.67-.74.49-1.87s-.91-1.76-1-1.63.25.81.38,1.73S170.3,460.37,170.47,460.44Z" style="fill:#263238"></path><path d="M177.44,456c-.05,0-.45-.19-1-.75a3.3,3.3,0,0,1-.77-1.17,1.9,1.9,0,0,1-.13-.88,1,1,0,0,1,.6-.87.8.8,0,0,1,.61,0,.93.93,0,0,1,.43.37,2.79,2.79,0,0,1,.31.8,5.55,5.55,0,0,1,.22,1.35c0,.8-.24,1.26-.29,1.23s0-.48-.08-1.2a6.58,6.58,0,0,0-.31-1.24c-.14-.48-.37-1-.68-.81s-.37.69-.22,1.12a3.47,3.47,0,0,0,.59,1.08C177.16,455.63,177.49,456,177.44,456Z" style="fill:#263238"></path><path d="M177.49,456.17c-.05-.06.44-.44,1.33-.67a3.89,3.89,0,0,0,1.36-.6c.39-.31.64-1,.29-1.35a1.08,1.08,0,0,0-1.44-.06,3,3,0,0,0-.9,1.15c-.4.82-.67,1.31-.74,1.28a4.43,4.43,0,0,1,.4-1.43,3.16,3.16,0,0,1,1-1.39,1.79,1.79,0,0,1,1-.36,1.41,1.41,0,0,1,1.1.46,1.28,1.28,0,0,1,.24,1.19,1.69,1.69,0,0,1-.62.88,3.61,3.61,0,0,1-1.57.59C178,456,177.53,456.22,177.49,456.17Z" style="fill:#263238"></path><path d="M230.09,181.33S210,209.2,209.81,216.85c-.26,8.8,5.9,15.62,5.9,15.62L217,251.63h0c0-1.34-20.48,105.76-20.48,105.76s13.34-6.91,21-5.43,24.21,3,29.4,2.47,17-6.67,21.24-6.67,10.62,4.94,15.31,5.43,19-5.68,19-5.68-14-25.66-18.77-46.44c-9.28-40.22-29.1-50.41-29.1-50.41l5.32-24.35s6.65-16.83,7.15-24.48-3.11-17.68-4.84-20.64-8.7-8.59-8.7-8.59Z" style="fill:#FF725E"></path><path d="M229.24,230.54a6.09,6.09,0,0,0-2,2.25,2.45,2.45,0,0,0,.91,3,2.52,2.52,0,0,0,2.77-.17,5.11,5.11,0,0,0,1.42-2,1.93,1.93,0,0,0,1,2.79,2.76,2.76,0,0,0,3-1.06,4.86,4.86,0,0,0,.81-3.25,4.06,4.06,0,0,0,3.46-.84,3,3,0,0,0,.76-3.37,2.37,2.37,0,0,0-3.1-1.13,3.39,3.39,0,0,0,2-3,2.82,2.82,0,0,0-2.17-2.73,2.4,2.4,0,0,0-2.74,2,2.41,2.41,0,0,0-2.42-2,2.7,2.7,0,0,0-2.43,2.1,2.61,2.61,0,0,0,.86,2.85s-3.18-1.45-4.46,1.07S229.24,230.54,229.24,230.54Z" style="fill:#fff"></path><path d="M235.35,226.08c.05,0,.3.31.39,1a3.29,3.29,0,0,1-2.82,3.71c-.65.08-1-.07-1-.13s.39-.07,1-.24a3.54,3.54,0,0,0,1.84-1.22,3.5,3.5,0,0,0,.69-2.09C235.38,226.48,235.27,226.11,235.35,226.08Z" style="fill:#263238"></path><path d="M234.4,229.23c-.05.15-2-.5-4.41-.55s-4.38.49-4.43.34a10.61,10.61,0,0,1,8.84.21Z" style="fill:#263238"></path><path d="M232.5,226.25c.13-.08.63.5,1.31,1.12s1.3,1.08,1.23,1.21-.84-.15-1.58-.83S232.38,226.32,232.5,226.25Z" style="fill:#263238"></path><path d="M233.5,221.75c.06.05-.24.36-.3,1a5.37,5.37,0,0,0,.58,2.38c.73,1.85,1.65,3.2,1.53,3.29a7.1,7.1,0,0,1-2-3.1,4.49,4.49,0,0,1-.45-2.63C233,221.94,233.47,221.69,233.5,221.75Z" style="fill:#263238"></path><path d="M233.53,221.27c0-.06.11-.19.36-.09a.5.5,0,1,1-.67.68.4.4,0,0,1,.11-.52c.25-.17.43,0,.38.07s-.12.11-.11.19.09,0,.06,0,.07-.05,0-.14S233.55,221.34,233.53,221.27Z" style="fill:#263238"></path><path d="M232.6,226.45c0,.06-.15.18-.46.11a.6.6,0,0,1-.42-.43.62.62,0,0,1,0-.4.53.53,0,0,1,.39-.3.71.71,0,0,1,.75.93.37.37,0,0,1-.36.23c-.1,0-.13-.08-.12-.11s.14-.12.13-.23-.24-.35-.31-.31,0,0,0,.1a.24.24,0,0,0,.1.18C232.43,226.33,232.59,226.37,232.6,226.45Z" style="fill:#263238"></path><path d="M225.87,228.6c0-.07.27-.16.42.19a.49.49,0,0,1-.24.57.59.59,0,0,1-.73-.14.57.57,0,0,1,0-.76.44.44,0,0,1,.66,0,.29.29,0,0,1,0,.42c-.09.07-.15,0-.15,0a.4.4,0,0,0-.05-.19c-.07.08-.06.07,0,.18a.12.12,0,0,0,.21,0C226,228.76,225.87,228.66,225.87,228.6Z" style="fill:#263238"></path><path d="M244.21,250.91c-.09,0,.26-1.19.39-3.12a17.39,17.39,0,0,0-5.14-13.65c-1.37-1.36-2.4-2-2.35-2.08a2.39,2.39,0,0,1,.76.39,13.22,13.22,0,0,1,1.84,1.43,16.35,16.35,0,0,1,4.31,6.34,16.67,16.67,0,0,1,.95,7.61,14.9,14.9,0,0,1-.45,2.28A2.57,2.57,0,0,1,244.21,250.91Z" style="fill:#263238"></path><path d="M238.87,239.17a8,8,0,0,0-4.07,3.46,7.13,7.13,0,0,0,9-2.48A4.86,4.86,0,0,0,238.87,239.17Z" style="fill:#455a64"></path><path d="M243.76,240.14h0" style="fill:#455a64"></path><path d="M243.69,240.09a24.93,24.93,0,0,1-2.82.71,27.07,27.07,0,0,1-2.76.91,5.08,5.08,0,0,1,2.62-1.41A5.13,5.13,0,0,1,243.69,240.09Z" style="fill:#263238"></path><path d="M242.25,232.4a6.48,6.48,0,0,1,3.65-2.25A5.81,5.81,0,0,1,245,234a5.74,5.74,0,0,1-3.2,2.35A3.93,3.93,0,0,1,242.25,232.4Z" style="fill:#455a64"></path><path d="M241.79,236.37h0" style="fill:#455a64"></path><path d="M241.78,236.31a3.65,3.65,0,0,1,.84-2.24c.75-1.12,1.68-1.73,1.76-1.62s-.62.86-1.33,1.91S241.92,236.36,241.78,236.31Z" style="fill:#263238"></path><path d="M252.71,277.23a5.78,5.78,0,0,0-2,2.25,2.42,2.42,0,0,0,.91,2.95,2.52,2.52,0,0,0,2.77-.17,5.23,5.23,0,0,0,1.41-2,1.94,1.94,0,0,0,1,2.79,2.74,2.74,0,0,0,3-1.05,4.89,4.89,0,0,0,.81-3.26,4,4,0,0,0,3.46-.84,3,3,0,0,0,.77-3.36,2.38,2.38,0,0,0-3.11-1.13,3.39,3.39,0,0,0,2-3,2.79,2.79,0,0,0-2.17-2.73,2.39,2.39,0,0,0-2.74,2,2.4,2.4,0,0,0-2.42-2,2.7,2.7,0,0,0-2.43,2.09,2.63,2.63,0,0,0,.87,2.86s-3.19-1.45-4.47,1.07S252.71,277.23,252.71,277.23Z" style="fill:#fff"></path><path d="M258.81,272.77c.06,0,.3.31.39,1a3.29,3.29,0,0,1-2.82,3.7c-.65.08-1-.06-1-.12s.39-.08,1-.24a3.6,3.6,0,0,0,1.84-1.22,3.7,3.7,0,0,0,.69-2.1C258.85,273.16,258.73,272.8,258.81,272.77Z" style="fill:#263238"></path><path d="M257.86,275.92c-.05.15-2-.51-4.41-.55s-4.38.49-4.42.33a10.64,10.64,0,0,1,8.83.22Z" style="fill:#263238"></path><path d="M256,272.94c.13-.08.63.49,1.32,1.11s1.29,1.08,1.22,1.22-.84-.15-1.57-.83S255.84,273,256,272.94Z" style="fill:#263238"></path><path d="M257,268.43c.06.06-.23.36-.29,1a5.17,5.17,0,0,0,.57,2.37c.73,1.86,1.66,3.21,1.53,3.3a7.1,7.1,0,0,1-2-3.1,4.61,4.61,0,0,1-.45-2.64C256.48,268.62,256.93,268.37,257,268.43Z" style="fill:#263238"></path><path d="M257,268c0-.06.11-.19.36-.1a.5.5,0,0,1-.07.92.49.49,0,0,1-.59-.24.42.42,0,0,1,.1-.52c.26-.16.43,0,.38.07s-.11.11-.11.19.09,0,.06,0,.08-.05,0-.14S257,268,257,268Z" style="fill:#263238"></path><path d="M256.06,273.13c0,.06-.14.18-.45.11a.58.58,0,0,1-.43-.43.6.6,0,0,1,0-.39.53.53,0,0,1,.38-.31.7.7,0,0,1,.68.35.65.65,0,0,1,.07.59.37.37,0,0,1-.35.22c-.11,0-.14-.07-.13-.1s.15-.12.13-.23-.24-.36-.31-.31,0,0,0,.1a.28.28,0,0,0,.11.18C255.89,273,256.06,273.06,256.06,273.13Z" style="fill:#263238"></path><path d="M249.33,275.28c0-.06.27-.15.42.2a.49.49,0,0,1-.23.56.59.59,0,0,1-.74-.89.43.43,0,0,1,.66,0,.31.31,0,0,1,0,.42c-.09.06-.16,0-.16,0s0-.19-.05-.19-.06.06,0,.18a.13.13,0,0,0,.21,0C249.42,275.45,249.33,275.35,249.33,275.28Z" style="fill:#263238"></path><path d="M267.67,297.6c-.09,0,.26-1.19.39-3.12a17.3,17.3,0,0,0-5.14-13.65c-1.37-1.36-2.4-2-2.35-2.09s.29.1.76.4a13.79,13.79,0,0,1,1.85,1.42,16.61,16.61,0,0,1,4.3,6.34,16.41,16.41,0,0,1,.95,7.61,14.15,14.15,0,0,1-.45,2.29A2.57,2.57,0,0,1,267.67,297.6Z" style="fill:#263238"></path><path d="M262.33,285.85a8.06,8.06,0,0,0-4.07,3.47,7.14,7.14,0,0,0,9-2.49A4.87,4.87,0,0,0,262.33,285.85Z" style="fill:#455a64"></path><path d="M267.23,286.82h0" style="fill:#455a64"></path><path d="M267.16,286.78c0,.15-1.3.26-2.82.71s-2.69,1-2.77.91a7.09,7.09,0,0,1,5.59-1.62Z" style="fill:#263238"></path><path d="M265.72,279.09a6.39,6.39,0,0,1,3.64-2.26,5.7,5.7,0,0,1-4.1,6.22A3.9,3.9,0,0,1,265.72,279.09Z" style="fill:#455a64"></path><path d="M265.26,283.06h0" style="fill:#455a64"></path><path d="M265.24,283a3.66,3.66,0,0,1,.85-2.24c.75-1.12,1.67-1.73,1.76-1.62s-.63.86-1.33,1.92S265.38,283,265.24,283Z" style="fill:#263238"></path><path d="M232.56,205.21a6,6,0,0,1,2,2.26,2.44,2.44,0,0,1-.91,2.94,2.5,2.5,0,0,1-2.77-.16,5.22,5.22,0,0,1-1.42-2,1.93,1.93,0,0,1-1,2.79,2.75,2.75,0,0,1-3-1,4.91,4.91,0,0,1-.81-3.26,4,4,0,0,1-3.46-.84,3,3,0,0,1-.76-3.36,2.37,2.37,0,0,1,3.1-1.14,3.38,3.38,0,0,1-2-3,2.8,2.8,0,0,1,2.18-2.72,2.38,2.38,0,0,1,2.73,2,2.4,2.4,0,0,1,2.42-2,2.69,2.69,0,0,1,2.43,2.09,2.61,2.61,0,0,1-.86,2.85s3.18-1.45,4.46,1.07S232.56,205.21,232.56,205.21Z" style="fill:#fff"></path><path d="M226.45,200.75c.08,0,0,.4,0,1a3.5,3.5,0,0,0,.69,2.09,3.57,3.57,0,0,0,1.84,1.23c.56.16.94.15.95.23s-.38.21-1,.13a3.29,3.29,0,0,1-2.82-3.71C226.15,201.06,226.4,200.73,226.45,200.75Z" style="fill:#263238"></path><path d="M227.4,203.91a10.56,10.56,0,0,1,8.84-.22c-.05.15-2-.41-4.43-.34S227.45,204.06,227.4,203.91Z" style="fill:#263238"></path><path d="M229.3,200.92c.12.07-.22.83-1,1.5s-1.52,1-1.58.83.55-.58,1.23-1.21S229.17,200.84,229.3,200.92Z" style="fill:#263238"></path><path d="M228.3,196.42c0-.06.48.19.66.91a4.49,4.49,0,0,1-.45,2.63,7,7,0,0,1-2,3.1c-.12-.09.8-1.44,1.53-3.29a5.37,5.37,0,0,0,.58-2.38A4.71,4.71,0,0,0,228.3,196.42Z" style="fill:#263238"></path><path d="M228.27,196c0,.07-.11.12-.15.2a.1.1,0,0,0,0,.13h0s0,0,0,0-.08-.13-.12-.19.13-.24.38-.07a.4.4,0,0,1,.11.52.52.52,0,0,1-.6.24.51.51,0,0,1-.07-.92C228.16,195.75,228.29,195.89,228.27,196Z" style="fill:#263238"></path><path d="M229.2,201.12c0-.08.17-.12.31-.23a.22.22,0,0,0,.1-.18c0-.08-.05-.11,0-.1s-.33.23-.31.31.1.18.13.24,0,.09-.12.1a.37.37,0,0,1-.36-.23.67.67,0,0,1,.07-.58.68.68,0,0,1,.68-.35.58.58,0,0,1,.39.3.62.62,0,0,1,0,.4.58.58,0,0,1-.42.43C229.35,201.3,229.19,201.18,229.2,201.12Z" style="fill:#263238"></path><path d="M235.93,203.27c0,.07-.09.16-.06.27a.12.12,0,0,0,.21,0c.06-.1,0-.12,0-.16s-.07.12-.07.17-.06.07-.15,0a.31.31,0,0,1-.05-.43.44.44,0,0,1,.66,0,.57.57,0,0,1,0,.76.59.59,0,0,1-.73.14.48.48,0,0,1-.24-.56C235.66,203.11,236,203.2,235.93,203.27Z" style="fill:#263238"></path><path d="M217.59,225.58a2.57,2.57,0,0,1-.31-.79,15.34,15.34,0,0,1-.45-2.29,16.68,16.68,0,0,1,.95-7.61,16.43,16.43,0,0,1,4.31-6.34,15,15,0,0,1,1.84-1.43,2.39,2.39,0,0,1,.76-.39c.05.07-1,.72-2.35,2.09a17.35,17.35,0,0,0-5.14,13.64C217.33,224.39,217.68,225.56,217.59,225.58Z" style="fill:#263238"></path><path d="M222.93,213.84A8,8,0,0,1,227,217.3a7.13,7.13,0,0,1-9-2.48A4.88,4.88,0,0,1,222.93,213.84Z" style="fill:#455a64"></path><path d="M218,214.81h0" style="fill:#455a64"></path><path d="M218.11,214.77a4.94,4.94,0,0,1,3,.21,5.11,5.11,0,0,1,2.62,1.4,25.52,25.52,0,0,1-2.76-.9A27.75,27.75,0,0,1,218.11,214.77Z" style="fill:#263238"></path><path d="M219.55,207.08a6.44,6.44,0,0,0-3.65-2.26,5.81,5.81,0,0,0,.9,3.87A5.74,5.74,0,0,0,220,211,3.89,3.89,0,0,0,219.55,207.08Z" style="fill:#455a64"></path><path d="M220,211h0" style="fill:#455a64"></path><path d="M220,211c-.14.05-.56-.9-1.27-1.95s-1.43-1.8-1.33-1.91,1,.5,1.76,1.62A3.6,3.6,0,0,1,220,211Z" style="fill:#263238"></path><path d="M278.76,327a6,6,0,0,0-2.22-2.08,2.43,2.43,0,0,0-3,.87,2.52,2.52,0,0,0,.13,2.77,5.22,5.22,0,0,0,2,1.45,1.93,1.93,0,0,0-2.8.93,2.74,2.74,0,0,0,1,3,4.91,4.91,0,0,0,3.24.86,4,4,0,0,0,.79,3.47,3,3,0,0,0,3.35.82,2.39,2.39,0,0,0,1.18-3.09,3.38,3.38,0,0,0,2.93,2.06,2.79,2.79,0,0,0,2.76-2.13,2.4,2.4,0,0,0-1.93-2.77,2.41,2.41,0,0,0,2-2.39,2.71,2.71,0,0,0-2.06-2.46,2.63,2.63,0,0,0-2.87.82s1.5-3.16-1-4.48S278.76,327,278.76,327Z" style="fill:#fff"></path><path d="M283.13,333.17c0,.05-.31.29-1,.38a3.39,3.39,0,0,1-2.43-.69,3.3,3.3,0,0,1-1.23-2.19c-.08-.66.08-1,.14-1s.06.39.22,1a3.55,3.55,0,0,0,1.19,1.86,3.63,3.63,0,0,0,2.09.72C282.73,333.2,283.1,333.09,283.13,333.17Z" style="fill:#263238"></path><path d="M280,332.17c-.15-.05.54-1.95.62-4.4s-.42-4.39-.27-4.43a10.59,10.59,0,0,1-.35,8.83Z" style="fill:#263238"></path><path d="M283,330.32c.07.12-.51.62-1.14,1.29s-1.1,1.28-1.23,1.21.16-.84.85-1.56S282.94,330.2,283,330.32Z" style="fill:#263238"></path><path d="M287.5,331.38c-.06.06-.36-.24-1-.31a5.41,5.41,0,0,0-2.38.54c-1.86.7-3.23,1.61-3.32,1.49a7,7,0,0,1,3.13-2,4.58,4.58,0,0,1,2.65-.41C287.31,330.9,287.55,331.36,287.5,331.38Z" style="fill:#263238"></path><path d="M288,331.42c.06,0,.19.11.09.36a.5.5,0,0,1-.92-.08.49.49,0,0,1,.25-.59.39.39,0,0,1,.51.11c.17.26,0,.43-.07.38s-.11-.12-.19-.12,0,.1,0,.06.05.08.15,0S287.9,331.44,288,331.42Z" style="fill:#263238"></path><path d="M282.81,330.41c-.06,0-.18-.15-.11-.45a.6.6,0,0,1,.44-.42.59.59,0,0,1,.39,0,.53.53,0,0,1,.3.39.68.68,0,0,1-.35.67.63.63,0,0,1-.59.06.35.35,0,0,1-.22-.35c0-.11.07-.14.1-.13s.12.15.24.13.35-.23.31-.3a.16.16,0,0,0-.1,0,.24.24,0,0,0-.18.1C282.92,330.25,282.88,330.41,282.81,330.41Z" style="fill:#263238"></path><path d="M280.76,323.65c.07,0,.15.27-.2.42a.49.49,0,0,1-.56-.25.59.59,0,0,1,.9-.72.44.44,0,0,1,0,.66.3.3,0,0,1-.42-.05c-.06-.09,0-.15,0-.16a.26.26,0,0,0,.19,0c-.08-.07-.07-.06-.18,0s-.05.17,0,.22S280.69,323.65,280.76,323.65Z" style="fill:#263238"></path><path d="M258.17,341.65c0-.09,1.19.28,3.11.44A17.33,17.33,0,0,0,275,337.16c1.38-1.36,2.05-2.37,2.12-2.32a2.42,2.42,0,0,1-.41.75,13.7,13.7,0,0,1-1.45,1.83,16.34,16.34,0,0,1-14,5A13.11,13.11,0,0,1,259,342,2.41,2.41,0,0,1,258.17,341.65Z" style="fill:#263238"></path><path d="M270,336.49a8,8,0,0,0-3.41-4.12,7.12,7.12,0,0,0,2.35,9A4.87,4.87,0,0,0,270,336.49Z" style="fill:#455a64"></path><path d="M269,341.37h0" style="fill:#455a64"></path><path d="M269,341.3a23.85,23.85,0,0,1-.67-2.83,29,29,0,0,1-.87-2.78A7.11,7.11,0,0,1,269,341.3Z" style="fill:#263238"></path><path d="M276.71,340a6.44,6.44,0,0,1,2.2,3.67,5.71,5.71,0,0,1-6.16-4.18A3.88,3.88,0,0,1,276.71,340Z" style="fill:#455a64"></path><path d="M272.75,339.46h0" style="fill:#455a64"></path><path d="M272.81,339.44a3.69,3.69,0,0,1,2.23.88c1.1.77,1.7,1.7,1.59,1.79s-.85-.64-1.89-1.36S272.76,339.58,272.81,339.44Z" style="fill:#263238"></path><path d="M213.07,328a5.88,5.88,0,0,0-2,2.26,2.41,2.41,0,0,0,.91,2.94,2.5,2.5,0,0,0,2.77-.16,5.31,5.31,0,0,0,1.41-2,1.93,1.93,0,0,0,1,2.79,2.75,2.75,0,0,0,3-1.05,4.91,4.91,0,0,0,.81-3.26,4,4,0,0,0,3.46-.84,3,3,0,0,0,.77-3.36,2.39,2.39,0,0,0-3.11-1.14,3.36,3.36,0,0,0,2-3,2.79,2.79,0,0,0-2.17-2.72,2.39,2.39,0,0,0-2.74,2,2.4,2.4,0,0,0-2.42-2,2.7,2.7,0,0,0-2.43,2.09,2.61,2.61,0,0,0,.86,2.85S212,322,210.7,324.51,213.07,328,213.07,328Z" style="fill:#fff"></path><path d="M219.17,323.57c.05,0,.3.31.39,1a3.33,3.33,0,0,1-.64,2.43,3.38,3.38,0,0,1-2.18,1.27c-.65.08-1-.07-1-.13s.39-.07,1-.23a3.42,3.42,0,0,0,2.53-3.32C219.2,324,219.09,323.6,219.17,323.57Z" style="fill:#263238"></path><path d="M218.22,326.73c-.05.15-2-.51-4.41-.55s-4.38.48-4.43.33a10.56,10.56,0,0,1,8.84.22Z" style="fill:#263238"></path><path d="M216.32,323.74c.13-.08.63.5,1.32,1.12s1.29,1.08,1.22,1.21-.84-.15-1.58-.83S216.2,323.82,216.32,323.74Z" style="fill:#263238"></path><path d="M217.32,319.24c.06.05-.24.36-.3,1a5.37,5.37,0,0,0,.58,2.38c.73,1.85,1.66,3.2,1.53,3.29a7,7,0,0,1-2-3.09,4.62,4.62,0,0,1-.45-2.64C216.84,319.43,217.29,319.18,217.32,319.24Z" style="fill:#263238"></path><path d="M217.35,318.77c0-.06.11-.19.36-.1a.5.5,0,0,1-.07.92.52.52,0,0,1-.6-.24.43.43,0,0,1,.11-.52c.26-.17.43,0,.38.07s-.11.11-.11.19.09,0,.06,0,.07-.05,0-.14S217.37,318.84,217.35,318.77Z" style="fill:#263238"></path><path d="M216.42,323.94c0,.06-.15.18-.46.11a.58.58,0,0,1-.42-.43.54.54,0,0,1,0-.39.53.53,0,0,1,.38-.31.68.68,0,0,1,.68.35.63.63,0,0,1,.07.58.36.36,0,0,1-.35.23c-.11,0-.14-.07-.13-.1s.15-.13.13-.24-.24-.35-.31-.31a.16.16,0,0,0,0,.1.22.22,0,0,0,.1.18C216.25,323.83,216.41,323.86,216.42,323.94Z" style="fill:#263238"></path><path d="M209.69,326.09c0-.07.27-.16.42.2a.49.49,0,0,1-.23.56.59.59,0,0,1-.74-.14.58.58,0,0,1,0-.76.44.44,0,0,1,.66,0,.31.31,0,0,1-.05.43c-.09.06-.15,0-.15,0a.31.31,0,0,0,0-.19c-.07.08-.06.07,0,.18a.12.12,0,0,0,.21,0C209.78,326.25,209.69,326.16,209.69,326.09Z" style="fill:#263238"></path><path d="M228,348.4c-.09,0,.26-1.19.39-3.12a17.35,17.35,0,0,0-5.14-13.64c-1.37-1.37-2.4-2-2.35-2.09a2.39,2.39,0,0,1,.76.39,14.27,14.27,0,0,1,1.84,1.43,16.37,16.37,0,0,1,5.26,13.95,14.15,14.15,0,0,1-.45,2.29A2.57,2.57,0,0,1,228,348.4Z" style="fill:#263238"></path><path d="M222.69,336.66a8,8,0,0,0-4.07,3.46,7.13,7.13,0,0,0,9-2.48A4.87,4.87,0,0,0,222.69,336.66Z" style="fill:#455a64"></path><path d="M227.59,337.63h0" style="fill:#455a64"></path><path d="M227.52,337.59c0,.15-1.3.26-2.83.71s-2.68,1-2.76.91a5,5,0,0,1,2.62-1.41A5.08,5.08,0,0,1,227.52,337.59Z" style="fill:#263238"></path><path d="M226.08,329.9a6.39,6.39,0,0,1,3.64-2.26,5.72,5.72,0,0,1-4.1,6.22A3.9,3.9,0,0,1,226.08,329.9Z" style="fill:#455a64"></path><path d="M225.61,333.86h0" style="fill:#455a64"></path><path d="M225.6,333.8a3.67,3.67,0,0,1,.84-2.24c.75-1.12,1.68-1.73,1.76-1.62s-.62.86-1.32,1.91S225.74,333.85,225.6,333.8Z" style="fill:#263238"></path><path d="M236.08,259.29a5.82,5.82,0,0,0,1.75-2.49,2.44,2.44,0,0,0-1.27-2.81,2.51,2.51,0,0,0-2.73.52,5.09,5.09,0,0,0-1.16,2.16,1.93,1.93,0,0,0-1.31-2.65,2.75,2.75,0,0,0-2.86,1.42,4.89,4.89,0,0,0-.4,3.33,4,4,0,0,0-3.32,1.27,3,3,0,0,0-.34,3.43,2.37,2.37,0,0,0,3.22.74A3.38,3.38,0,0,0,226,267.4a2.8,2.8,0,0,0,2.5,2.43,2.4,2.4,0,0,0,2.47-2.3,2.41,2.41,0,0,0,2.65,1.69,2.7,2.7,0,0,0,2.15-2.39,2.6,2.6,0,0,0-1.21-2.72s3.34,1,4.3-1.62S236.08,259.29,236.08,259.29Z" style="fill:#fff"></path><path d="M230.59,264.48c-.05,0-.34-.27-.51-.9a3.29,3.29,0,0,1,2.33-4c.64-.16,1.05-.06,1,0s-.38.12-.92.35a3.37,3.37,0,0,0-2.09,3.61C230.5,264.09,230.66,264.45,230.59,264.48Z" style="fill:#263238"></path><path d="M231.14,261.24c0-.16,2,.25,4.44,0s4.29-1,4.35-.88a8.62,8.62,0,0,1-4.3,1.4A8.43,8.43,0,0,1,231.14,261.24Z" style="fill:#263238"></path><path d="M233.39,264c-.11.09-.69-.41-1.44-.95s-1.42-.91-1.37-1,.85,0,1.67.62S233.5,263.87,233.39,264Z" style="fill:#263238"></path><path d="M233,268.55a5.27,5.27,0,0,0,.18-1,5.5,5.5,0,0,0-.87-2.29c-1-1.74-2.05-3-1.94-3.07a7,7,0,0,1,2.4,2.82,4.51,4.51,0,0,1,.77,2.56C233.41,268.31,233,268.61,233,268.55Z" style="fill:#263238"></path><path d="M233,269c0,.06-.08.21-.34.15a.5.5,0,0,1-.05-.92.49.49,0,0,1,.62.16.4.4,0,0,1,0,.53c-.23.2-.43,0-.38,0s.1-.13.09-.21-.09.05-.07,0-.07.06,0,.15S233,269,233,269Z" style="fill:#263238"></path><path d="M233.27,263.78c0-.06.12-.2.44-.17a.6.6,0,0,1,.47.37.67.67,0,0,1,0,.4.55.55,0,0,1-.35.35.68.68,0,0,1-.71-.26.64.64,0,0,1-.15-.57.36.36,0,0,1,.33-.27c.1,0,.14.05.13.09s-.13.14-.09.24.27.33.34.27,0,0,0-.1a.21.21,0,0,0-.12-.17C233.45,263.87,233.28,263.85,233.27,263.78Z" style="fill:#263238"></path><path d="M239.68,260.8c0,.06-.25.19-.44-.14a.48.48,0,0,1,.16-.59.58.58,0,0,1,.74.05.56.56,0,0,1,.1.75.44.44,0,0,1-.66.07.31.31,0,0,1,0-.43c.08-.07.14,0,.15,0a.25.25,0,0,0,.08.18c.05-.09,0-.07,0-.18a.13.13,0,0,0-.21,0C239.56,260.65,239.67,260.74,239.68,260.8Z" style="fill:#263238"></path><path d="M218.69,241c.09,0-.11,1.21,0,3.14A17.32,17.32,0,0,0,225.5,257c1.53,1.18,2.63,1.7,2.59,1.78a2.64,2.64,0,0,1-.8-.3,13.93,13.93,0,0,1-2-1.18,16.58,16.58,0,0,1-5.07-5.76,16.38,16.38,0,0,1-1.88-7.43,13.81,13.81,0,0,1,.15-2.32A2.37,2.37,0,0,1,218.69,241Z" style="fill:#263238"></path><path d="M225.45,251.94a8.08,8.08,0,0,0,3.62-3.94,7.11,7.11,0,0,0-8.58,3.58A4.83,4.83,0,0,0,225.45,251.94Z" style="fill:#455a64"></path><path d="M220.48,251.59h0" style="fill:#455a64"></path><path d="M220.55,251.63a24.35,24.35,0,0,1,2.71-1.06,27.85,27.85,0,0,1,2.63-1.25,5,5,0,0,1-2.42,1.73A5.24,5.24,0,0,1,220.55,251.63Z" style="fill:#263238"></path><path d="M222.94,259.07a6.37,6.37,0,0,1-3.33,2.7,5.73,5.73,0,0,1,3.29-6.69A3.88,3.88,0,0,1,222.94,259.07Z" style="fill:#455a64"></path><path d="M222.91,255.08h0" style="fill:#455a64"></path><path d="M222.93,255.14a3.69,3.69,0,0,1-.56,2.33c-.6,1.2-1.45,1.93-1.54,1.83s.51-.94,1.08-2.07S222.78,255.11,222.93,255.14Z" style="fill:#263238"></path><path d="M262.14,315.94a5.82,5.82,0,0,0,1.75-2.49,2.44,2.44,0,0,0-1.27-2.81,2.51,2.51,0,0,0-2.73.52,5.09,5.09,0,0,0-1.16,2.16,1.93,1.93,0,0,0-1.31-2.65,2.75,2.75,0,0,0-2.86,1.42,4.89,4.89,0,0,0-.4,3.33,4,4,0,0,0-3.32,1.27,3,3,0,0,0-.34,3.43,2.37,2.37,0,0,0,3.22.74,3.38,3.38,0,0,0-1.64,3.19,2.8,2.8,0,0,0,2.5,2.43,2.4,2.4,0,0,0,2.47-2.3,2.41,2.41,0,0,0,2.65,1.69,2.7,2.7,0,0,0,2.15-2.39,2.6,2.6,0,0,0-1.21-2.72s3.34,1,4.3-1.62S262.14,315.94,262.14,315.94Z" style="fill:#fff"></path><path d="M256.65,321.13s-.34-.27-.51-.9a3.31,3.31,0,0,1,.33-2.5,3.38,3.38,0,0,1,2-1.53c.64-.16,1-.06,1,0s-.38.12-.92.35a3.37,3.37,0,0,0-2.09,3.61C256.56,320.74,256.72,321.1,256.65,321.13Z" style="fill:#263238"></path><path d="M257.2,317.89c0-.16,2,.25,4.44,0s4.29-1,4.35-.88a8.62,8.62,0,0,1-4.3,1.4A8.43,8.43,0,0,1,257.2,317.89Z" style="fill:#263238"></path><path d="M259.45,320.61c-.11.09-.69-.41-1.44-.94s-1.42-.91-1.37-1.05.85,0,1.67.62S259.56,320.52,259.45,320.61Z" style="fill:#263238"></path><path d="M259,325.2a5.27,5.27,0,0,0,.18-1,5.5,5.5,0,0,0-.87-2.29c-1-1.74-2.05-3-1.94-3.07a7,7,0,0,1,2.4,2.82,4.51,4.51,0,0,1,.77,2.56C259.47,325,259.06,325.26,259,325.2Z" style="fill:#263238"></path><path d="M259.05,325.67c0,.06-.08.21-.34.15a.5.5,0,0,1,0-.92.49.49,0,0,1,.62.16.4.4,0,0,1,0,.53c-.23.2-.43,0-.38,0s.1-.13.09-.21-.09.05-.07,0-.07.06,0,.15S259,325.61,259.05,325.67Z" style="fill:#263238"></path><path d="M259.33,320.43c0-.06.12-.2.44-.17a.6.6,0,0,1,.47.37.67.67,0,0,1,0,.4.55.55,0,0,1-.35.35.68.68,0,0,1-.71-.26.64.64,0,0,1-.15-.57.36.36,0,0,1,.33-.27c.1,0,.14.05.13.09s-.13.14-.09.24.27.33.34.27,0,0,0-.1a.21.21,0,0,0-.12-.17C259.51,320.52,259.34,320.5,259.33,320.43Z" style="fill:#263238"></path><path d="M265.74,317.45c0,.06-.25.19-.44-.14a.48.48,0,0,1,.16-.59.58.58,0,0,1,.74,0,.56.56,0,0,1,.1.75.44.44,0,0,1-.66.07.31.31,0,0,1,0-.43c.08-.07.14,0,.15,0a.25.25,0,0,0,.08.18c.05-.09,0-.07,0-.18a.13.13,0,0,0-.21,0C265.62,317.3,265.73,317.39,265.74,317.45Z" style="fill:#263238"></path><path d="M244.75,297.61c.09,0-.11,1.21,0,3.14a17.32,17.32,0,0,0,6.81,12.9c1.53,1.18,2.63,1.7,2.59,1.78a2.64,2.64,0,0,1-.8-.3,13.93,13.93,0,0,1-2-1.18,16.58,16.58,0,0,1-5.07-5.76,16.38,16.38,0,0,1-1.88-7.43,13.81,13.81,0,0,1,.15-2.32A2.37,2.37,0,0,1,244.75,297.61Z" style="fill:#263238"></path><path d="M251.51,308.59a8,8,0,0,0,3.61-3.94,7.11,7.11,0,0,0-8.57,3.58A4.83,4.83,0,0,0,251.51,308.59Z" style="fill:#455a64"></path><path d="M246.54,308.24h0" style="fill:#455a64"></path><path d="M246.61,308.28a24.35,24.35,0,0,1,2.71-1.06c1.47-.62,2.54-1.37,2.63-1.25a5.08,5.08,0,0,1-2.42,1.73A5.24,5.24,0,0,1,246.61,308.28Z" style="fill:#263238"></path><path d="M249,315.72a6.37,6.37,0,0,1-3.33,2.7,5.71,5.71,0,0,1,3.29-6.68A3.89,3.89,0,0,1,249,315.72Z" style="fill:#455a64"></path><path d="M249,311.73h0" style="fill:#455a64"></path><path d="M249,311.79a3.69,3.69,0,0,1-.56,2.33c-.6,1.2-1.45,1.93-1.54,1.83s.51-.94,1.08-2.07S248.84,311.76,249,311.79Z" style="fill:#263238"></path><path d="M228.66,286.39a6,6,0,0,0-2.61-1.55,2.44,2.44,0,0,0-2.71,1.49,2.52,2.52,0,0,0,.73,2.68,5.21,5.21,0,0,0,2.24,1,1.94,1.94,0,0,0-2.54,1.52,2.76,2.76,0,0,0,1.64,2.74,4.91,4.91,0,0,0,3.36.13,4,4,0,0,0,1.52,3.22,3,3,0,0,0,3.45.07,2.39,2.39,0,0,0,.48-3.27,3.38,3.38,0,0,0,3.31,1.38,2.8,2.8,0,0,0,2.23-2.68,2.4,2.4,0,0,0-2.49-2.28,2.4,2.4,0,0,0,1.48-2.77,2.71,2.71,0,0,0-2.55-2,2.61,2.61,0,0,0-2.61,1.42s.77-3.41-2-4.16S228.66,286.39,228.66,286.39Z" style="fill:#fff"></path><path d="M234.27,291.46c0,.05-.25.36-.87.58a3.28,3.28,0,0,1-2.51-.14,3.33,3.33,0,0,1-1.68-1.87c-.22-.63-.15-1-.09-1s.15.37.43.89a3.52,3.52,0,0,0,1.56,1.55,3.61,3.61,0,0,0,2.2.26C233.88,291.58,234.22,291.39,234.27,291.46Z" style="fill:#263238"></path><path d="M231,291.17c-.16,0,.09-2-.35-4.43s-1.37-4.19-1.23-4.27a8.4,8.4,0,0,1,1.74,4.18A8.57,8.57,0,0,1,231,291.17Z" style="fill:#263238"></path><path d="M233.52,288.71c.11.1-.35.71-.82,1.51s-.8,1.49-.94,1.45,0-.86.49-1.72S233.43,288.61,233.52,288.71Z" style="fill:#263238"></path><path d="M238.14,288.77c0,.07-.4-.15-1-.09a5.39,5.39,0,0,0-2.21,1c-1.67,1.09-2.8,2.27-2.91,2.17a7,7,0,0,1,2.62-2.6,4.53,4.53,0,0,1,2.49-1C237.86,288.35,238.19,288.74,238.14,288.77Z" style="fill:#263238"></path><path d="M238.61,288.71s.21.07.16.33a.5.5,0,0,1-.91.12.49.49,0,0,1,.11-.63.4.4,0,0,1,.53,0c.22.21.08.42,0,.38s-.13-.09-.21-.07.06.08,0,.07.06.06.14,0S238.54,288.74,238.61,288.71Z" style="fill:#263238"></path><path d="M233.35,288.84c-.06,0-.2-.1-.2-.42a.59.59,0,0,1,.34-.5.62.62,0,0,1,.39-.05.53.53,0,0,1,.38.32.7.7,0,0,1-.2.73.68.68,0,0,1-.57.19.36.36,0,0,1-.29-.3c0-.11.05-.15.08-.14s.15.11.25.07.3-.3.24-.36,0,0-.1,0a.24.24,0,0,0-.16.14C233.43,288.66,233.42,288.82,233.35,288.84Z" style="fill:#263238"></path><path d="M229.89,282.69c.06,0,.2.23-.11.45a.49.49,0,0,1-.6-.12.59.59,0,0,1,.73-.9.43.43,0,0,1,.12.65.3.3,0,0,1-.42,0c-.08-.08-.06-.14,0-.16a.28.28,0,0,0,.18-.08c-.09-.05-.08-.05-.18,0s0,.17.06.2S229.82,282.7,229.89,282.69Z" style="fill:#263238"></path><path d="M211.74,305.16c0-.1,1.21,0,3.13-.25a17.4,17.4,0,0,0,12.33-7.79c1.06-1.62,1.49-2.76,1.57-2.73a2.48,2.48,0,0,1-.23.83,15,15,0,0,1-1,2.09,16.34,16.34,0,0,1-12.6,8,14.29,14.29,0,0,1-2.33,0A2.56,2.56,0,0,1,211.74,305.16Z" style="fill:#263238"></path><path d="M222.16,297.56a8,8,0,0,0-4.21-3.3,7.14,7.14,0,0,0,4.24,8.28A4.84,4.84,0,0,0,222.16,297.56Z" style="fill:#455a64"></path><path d="M222.2,302.54h0" style="fill:#455a64"></path><path d="M222.23,302.47a28.36,28.36,0,0,1-1.27-2.62,29,29,0,0,1-1.45-2.53,5,5,0,0,1,1.91,2.28A5.14,5.14,0,0,1,222.23,302.47Z" style="fill:#263238"></path><path d="M229.47,299.5a6.44,6.44,0,0,1,2.94,3.11,5.7,5.7,0,0,1-6.92-2.75A3.92,3.92,0,0,1,229.47,299.5Z" style="fill:#455a64"></path><path d="M225.49,299.85h0" style="fill:#455a64"></path><path d="M225.55,299.82a3.66,3.66,0,0,1,2.36.38c1.25.51,2,1.29,2,1.4a12.18,12.18,0,0,1-2.15-.92A11.76,11.76,0,0,1,225.55,299.82Z" style="fill:#263238"></path><path d="M216.43,274.29a7.58,7.58,0,0,0-3,5l.07,0A29,29,0,0,1,216.8,278a11.76,11.76,0,0,0,3.52-1.67,4.16,4.16,0,0,0,1.73-3.34A7.54,7.54,0,0,0,216.43,274.29Z" style="fill:#455a64"></path><path d="M219.51,274c.07.14-1.63.89-3.3,2.37s-2.66,3.05-2.79,3a7.33,7.33,0,0,1,2.44-3.36A7.44,7.44,0,0,1,219.51,274Z" style="fill:#263238"></path><path d="M237.33,184.32a7.57,7.57,0,0,0-3,5l.07,0a28.22,28.22,0,0,1,3.28-1.33,11.7,11.7,0,0,0,3.51-1.67A4.09,4.09,0,0,0,243,183,7.56,7.56,0,0,0,237.33,184.32Z" style="fill:#455a64"></path><path d="M240.42,184c.06.14-1.63.89-3.31,2.37s-2.65,3-2.79,3a9.44,9.44,0,0,1,6.1-5.34Z" style="fill:#263238"></path><path d="M274.12,310a7.57,7.57,0,0,0-3,4.95l.07,0a30.1,30.1,0,0,1,3.28-1.33A11.47,11.47,0,0,0,278,312a4.09,4.09,0,0,0,1.73-3.33A7.56,7.56,0,0,0,274.12,310Z" style="fill:#455a64"></path><path d="M277.21,309.69c.06.15-1.63.89-3.31,2.38s-2.65,3-2.79,3a9.44,9.44,0,0,1,6.1-5.34Z" style="fill:#263238"></path><path d="M204.33,342.84a7.58,7.58,0,0,0-3,5l.07,0a29,29,0,0,1,3.28-1.33,11.76,11.76,0,0,0,3.52-1.67,4.15,4.15,0,0,0,1.73-3.34A7.59,7.59,0,0,0,204.33,342.84Z" style="fill:#455a64"></path><path d="M207.41,342.55c.07.14-1.63.89-3.3,2.37s-2.66,3.05-2.79,3a7.33,7.33,0,0,1,2.44-3.36A7.44,7.44,0,0,1,207.41,342.55Z" style="fill:#263238"></path><path d="M241.44,277.86a5.35,5.35,0,0,0-4.05.5l0,.05a21.92,21.92,0,0,1,2.16,1.25,8.11,8.11,0,0,0,2.46,1.23,2.92,2.92,0,0,0,2.61-.48A5.33,5.33,0,0,0,241.44,277.86Z" style="fill:#455a64"></path><path d="M243,279.45c-.08.14-1.23-.44-2.77-.73s-2.83-.19-2.85-.34a4.5,4.5,0,0,1,2.94-.17A4.6,4.6,0,0,1,243,279.45Z" style="fill:#263238"></path><path d="M233.56,311.47a5.35,5.35,0,0,0-4.05.49V312a20.23,20.23,0,0,1,2.17,1.24,8,8,0,0,0,2.46,1.23,2.89,2.89,0,0,0,2.6-.48A5.26,5.26,0,0,0,233.56,311.47Z" style="fill:#455a64"></path><path d="M235.07,313.06c-.08.13-1.24-.45-2.78-.74s-2.82-.19-2.85-.34a6,6,0,0,1,5.63,1.08Z" style="fill:#263238"></path><path d="M245.27,341.59a5.3,5.3,0,0,0-.11,4.08h.05a18.65,18.65,0,0,1,1.56-2,8.13,8.13,0,0,0,1.58-2.24,2.88,2.88,0,0,0-.09-2.65A5.35,5.35,0,0,0,245.27,341.59Z" style="fill:#455a64"></path><path d="M247.07,340.34c.12.1-.63,1.15-1.14,2.63s-.61,2.77-.77,2.77a6.08,6.08,0,0,1,1.91-5.4Z" style="fill:#263238"></path><path d="M252,264.05a7.56,7.56,0,0,0,1.71-5.52h-.07a28.16,28.16,0,0,1-2.87,2.07,11.6,11.6,0,0,0-3,2.46,4.11,4.11,0,0,0-.89,3.65A7.57,7.57,0,0,0,252,264.05Z" style="fill:#455a64"></path><path d="M249.1,265.07c-.09-.12,1.37-1.25,2.65-3.09s1.86-3.59,2-3.54a7.48,7.48,0,0,1-1.58,3.84A7.36,7.36,0,0,1,249.1,265.07Z" style="fill:#263238"></path><g style="opacity:0.30000000000000004"><path d="M219.45,230a1.12,1.12,0,0,0-1.36-.28h.06a.87.87,0,0,0-.6.64,1.12,1.12,0,0,0,.52,1.28,1.09,1.09,0,0,0,1.38-1.64Z"></path></g><g style="opacity:0.30000000000000004"><path d="M238.06,248.48a1.12,1.12,0,0,0-1.36-.28h.07a.87.87,0,0,0-.6.64,1.09,1.09,0,1,0,1.89-.36Z"></path></g><g style="opacity:0.30000000000000004"><path d="M260.4,262.07a1.13,1.13,0,0,0-1.36-.29h.07a.84.84,0,0,0-.6.63,1.13,1.13,0,0,0,.52,1.29,1.09,1.09,0,0,0,1.37-1.64Z"></path></g><g style="opacity:0.30000000000000004"><path d="M229.86,186.7a1.12,1.12,0,0,0-1.36-.28h.06a.85.85,0,0,0-.6.64,1.09,1.09,0,1,0,1.9-.36Z"></path></g><g style="opacity:0.30000000000000004"><path d="M275.23,299.12a1.14,1.14,0,0,0-1.36-.28h.06a.81.81,0,0,0-.59.63,1.11,1.11,0,0,0,.51,1.29,1.1,1.1,0,0,0,1.38-1.65Z"></path></g><g style="opacity:0.30000000000000004"><path d="M242.36,271.29A1.14,1.14,0,0,0,241,271h.06a.87.87,0,0,0-.6.64,1.13,1.13,0,0,0,.52,1.29,1.1,1.1,0,0,0,1.38-1.65Z"></path></g><g style="opacity:0.30000000000000004"><path d="M252.21,292.75a1.12,1.12,0,0,0-1.36-.28h.06a.84.84,0,0,0-.59.64,1.12,1.12,0,0,0,.52,1.28,1.09,1.09,0,0,0,1.37-1.64Z"></path></g><g style="opacity:0.30000000000000004"><path d="M210.91,314.81a1.14,1.14,0,0,0-1.36-.28h.06a.87.87,0,0,0-.6.64,1.09,1.09,0,1,0,1.9-.36Z"></path></g><g style="opacity:0.30000000000000004"><path d="M219.78,345a1.12,1.12,0,0,0-1.35-.28h.06a.87.87,0,0,0-.6.64,1.09,1.09,0,1,0,1.89-.36Z"></path></g><g style="opacity:0.30000000000000004"><path d="M289.49,344.28a1.13,1.13,0,0,0-1.36-.28h.06a.81.81,0,0,0-.59.63,1.13,1.13,0,0,0,.52,1.29,1.09,1.09,0,0,0,1.37-1.65Z"></path></g><g style="opacity:0.30000000000000004"><path d="M242.3,328.32a1.12,1.12,0,0,0-1.36-.28H241a.86.86,0,0,0-.59.64,1.09,1.09,0,1,0,1.89-.36Z"></path></g><g style="opacity:0.30000000000000004"><path d="M211.75,291.51a1.14,1.14,0,0,0-1.36-.28h.06a.87.87,0,0,0-.6.64,1.1,1.1,0,1,0,1.9-.36Z"></path></g><g style="opacity:0.30000000000000004"><path d="M216.61,265.05a1.14,1.14,0,0,0-1.36-.28h.06a.87.87,0,0,0-.6.64,1.13,1.13,0,0,0,.52,1.29,1.1,1.1,0,0,0,1.38-1.65Z"></path></g><path d="M255.61,239.27l13.48,24,22.66,42,7.86-8.81s-14.2-35.93-16-41.42-10.25-22.61-10.25-22.61Z" style="fill:#ffbe9d"></path><path d="M288.12,298.22l7.1,13.73s11.78,7.77,13.36,7.85,2.93-.33,3.43-1.25a3.2,3.2,0,0,0,0-2.26s1.33-1.5.67-2.92L312,312s.37,0,.85-.75a1.65,1.65,0,0,0,0-1.59,2,2,0,0,0,.22-1.75c-.32-1.09-3.66-4.68-3.66-4.68s-5.35-4.59-6.85-5.09-6.44-3.82-6.44-3.82Z" style="fill:#ffbe9d"></path><path d="M311.89,315.9a9.37,9.37,0,0,1-3.49-1,9.73,9.73,0,0,1-3.15-1.82,18.53,18.53,0,0,1,3.36,1.34A19.38,19.38,0,0,1,311.89,315.9Z" style="fill:#eb996e"></path><path d="M312.18,312.05a5.47,5.47,0,0,1-2.56-1.32,6.79,6.79,0,0,1-2-2,9.67,9.67,0,0,1,2.35,1.61A16.14,16.14,0,0,1,312.18,312.05Z" style="fill:#eb996e"></path><path d="M312.86,309.61c-.07.13-1.15-.45-2.2-1.49a7.05,7.05,0,0,1-1.68-2.06c.11-.11,1,.66,2,1.68S312.94,309.49,312.86,309.61Z" style="fill:#eb996e"></path><path d="M278.63,250.66a3.84,3.84,0,0,1-2.43-1.7,3.76,3.76,0,0,1-1-2.79,26.53,26.53,0,0,0,1.39,2.48C277.55,249.9,278.7,250.52,278.63,250.66Z" style="fill:#FF725E"></path><path d="M238.82,197.83c.38.24,16.79,41.44,16.79,41.44l19.62-6.43-10.1-37s-4.19-17-10.37-18.28-15.09,4.69-15.94,9.88A36.1,36.1,0,0,0,238.82,197.83Z" style="fill:#FF725E"></path><path d="M250.86,181.54a3.52,3.52,0,0,1-.57.3,13.3,13.3,0,0,0-1.61.87,15.35,15.35,0,0,0-4.69,4.71,21.14,21.14,0,0,0-3.2,9.3,32.91,32.91,0,0,0,1.37,12.05c1.18,4.17,2.75,8,4.1,11.55s2.57,6.68,3.61,9.36l2.38,6.33.63,1.73a2.37,2.37,0,0,1,.18.62,3.49,3.49,0,0,1-.28-.58c-.18-.44-.42-1-.72-1.69-.62-1.54-1.48-3.67-2.54-6.27l-3.7-9.33c-1.38-3.51-3-7.37-4.17-11.58a32.92,32.92,0,0,1-1.34-12.24,21.08,21.08,0,0,1,3.37-9.45,15.15,15.15,0,0,1,4.89-4.69,13.17,13.17,0,0,1,1.67-.79A2.58,2.58,0,0,1,250.86,181.54Z" style="fill:#263238"></path><path d="M267.9,206a23,23,0,0,1-1-3.15c-.53-2-1.24-4.69-2-7.71a24.47,24.47,0,0,0-2.66-7.38,11.62,11.62,0,0,0-2.16-2.41,2.37,2.37,0,0,1,.78.44,7.16,7.16,0,0,1,1.69,1.76c1.24,1.69,2.13,4.45,2.85,7.46s1.4,5.75,1.84,7.74A20.88,20.88,0,0,1,267.9,206Z" style="fill:#263238"></path><path d="M247.7,202.64a5.86,5.86,0,0,0-2,2.25,2.43,2.43,0,0,0,.91,3,2.52,2.52,0,0,0,2.77-.17,5.36,5.36,0,0,0,1.42-2,1.93,1.93,0,0,0,1,2.79,2.76,2.76,0,0,0,3-1.05,4.94,4.94,0,0,0,.8-3.26,4,4,0,0,0,3.46-.84,3,3,0,0,0,.77-3.36,2.38,2.38,0,0,0-3.11-1.13,3.37,3.37,0,0,0,2-3,2.79,2.79,0,0,0-2.17-2.73,2.39,2.39,0,0,0-2.74,2,2.4,2.4,0,0,0-2.42-2,2.7,2.7,0,0,0-2.43,2.09,2.62,2.62,0,0,0,.87,2.85s-3.19-1.45-4.47,1.08S247.7,202.64,247.7,202.64Z" style="fill:#fff"></path><path d="M253.8,198.18c.06,0,.3.31.4,1a3.31,3.31,0,0,1-2.83,3.7c-.65.08-1-.07-1-.13s.4-.07,1-.23a3.37,3.37,0,0,0,2.53-3.32C253.84,198.57,253.73,198.2,253.8,198.18Z" style="fill:#263238"></path><path d="M252.85,201.33c0,.15-2-.51-4.4-.55s-4.39.49-4.43.33a8.47,8.47,0,0,1,4.44-.85A8.37,8.37,0,0,1,252.85,201.33Z" style="fill:#263238"></path><path d="M251,198.35c.12-.09.62.49,1.31,1.11s1.3,1.08,1.23,1.21-.85-.14-1.58-.82S250.84,198.42,251,198.35Z" style="fill:#263238"></path><path d="M252,193.84c.06,0-.23.36-.29,1a5.33,5.33,0,0,0,.57,2.37c.73,1.86,1.66,3.2,1.54,3.3a6.91,6.91,0,0,1-2-3.1,4.55,4.55,0,0,1-.46-2.64C251.48,194,251.92,193.78,252,193.84Z" style="fill:#263238"></path><path d="M252,193.37c0-.06.11-.19.36-.1a.5.5,0,0,1-.06.92.5.5,0,0,1-.6-.24.41.41,0,0,1,.11-.52c.25-.17.43,0,.37.07s-.11.11-.11.19.09,0,.06,0,.08-.05,0-.14S252,193.44,252,193.37Z" style="fill:#263238"></path><path d="M251.05,198.54c0,.06-.14.18-.45.11a.6.6,0,0,1-.43-.43.67.67,0,0,1,0-.39.53.53,0,0,1,.38-.31.7.7,0,0,1,.68.35.62.62,0,0,1,.07.59.37.37,0,0,1-.35.22c-.11,0-.14-.07-.13-.1s.15-.13.13-.24-.24-.35-.3-.3,0,0,0,.09a.23.23,0,0,0,.1.19C250.89,198.43,251.05,198.47,251.05,198.54Z" style="fill:#263238"></path><path d="M244.32,200.69c0-.06.27-.16.42.2a.49.49,0,0,1-.23.56.58.58,0,0,1-.74-.14.59.59,0,0,1,0-.76.44.44,0,0,1,.66,0,.31.31,0,0,1,0,.42c-.09.06-.15,0-.16,0a.27.27,0,0,0,0-.2c-.07.08-.06.07,0,.19a.13.13,0,0,0,.21,0C244.42,200.86,244.32,200.76,244.32,200.69Z" style="fill:#263238"></path><path d="M262.66,223c-.09,0,.26-1.19.39-3.12a17.3,17.3,0,0,0-5.14-13.65c-1.37-1.37-2.4-2-2.35-2.09a2.21,2.21,0,0,1,.76.4,13.79,13.79,0,0,1,1.85,1.42,16.73,16.73,0,0,1,4.31,6.34,16.53,16.53,0,0,1,.94,7.61,14.15,14.15,0,0,1-.45,2.29A2.73,2.73,0,0,1,262.66,223Z" style="fill:#263238"></path><path d="M257.33,211.26a8,8,0,0,0-4.08,3.46,7.12,7.12,0,0,0,9-2.48A4.86,4.86,0,0,0,257.33,211.26Z" style="fill:#455a64"></path><path d="M262.22,212.23h0" style="fill:#455a64"></path><path d="M262.15,212.19c0,.15-1.3.26-2.82.71s-2.69,1-2.77.91a7.09,7.09,0,0,1,5.59-1.62Z" style="fill:#263238"></path><path d="M260.71,204.5a6.39,6.39,0,0,1,3.64-2.26,5.73,5.73,0,0,1-4.09,6.22A3.87,3.87,0,0,1,260.71,204.5Z" style="fill:#455a64"></path><path d="M260.25,208.47h0" style="fill:#455a64"></path><path d="M260.23,208.4a3.66,3.66,0,0,1,.85-2.24c.75-1.12,1.68-1.73,1.76-1.62s-.63.86-1.33,1.91S260.37,208.45,260.23,208.4Z" style="fill:#263238"></path><path d="M266.46,231.09a7.57,7.57,0,0,0,1.71-5.52h-.08a28.6,28.6,0,0,1-2.87,2.07,11.56,11.56,0,0,0-3,2.45,4.12,4.12,0,0,0-.89,3.65A7.56,7.56,0,0,0,266.46,231.09Z" style="fill:#455a64"></path><path d="M263.53,232.11c-.1-.13,1.37-1.25,2.65-3.09s1.85-3.59,2-3.54a9.5,9.5,0,0,1-4.66,6.63Z" style="fill:#263238"></path><g style="opacity:0.30000000000000004"><path d="M256.82,225.39a1.14,1.14,0,0,0-1.36-.28h.06a.84.84,0,0,0-.6.63,1.1,1.1,0,1,0,1.9-.36Z"></path></g><g style="opacity:0.30000000000000004"><path d="M256.08,184.71a1.12,1.12,0,0,0-1.36-.28h.06a.84.84,0,0,0-.59.64,1.11,1.11,0,0,0,.51,1.28,1.09,1.09,0,0,0,1.38-1.64Z"></path></g><g style="opacity:0.30000000000000004"><path d="M240.8,195c-2.85,8.55.3,17.71,2.89,26s7.15,19.55,11.48,26.87l1.43-6.56a17.12,17.12,0,0,0-.92-1.91c-.66.4-1.22.82-1.78.29a9.61,9.61,0,0,1-1.49-2.68c-1.33-3.37-2.57-6.95-3.91-10.32-3.95-9.94-8.5-20.08-7.7-30.74"></path></g><path d="M267.72,205.31a7.78,7.78,0,0,1-.28-1.64c-.15-1.07-.37-2.66-.75-4.68a55.4,55.4,0,0,0-1.85-7.22,32.2,32.2,0,0,0-1.81-4.25,10.84,10.84,0,0,0-3.27-3.74,11,11,0,0,0-10.89-.85,16.53,16.53,0,0,0-5,4,19.38,19.38,0,0,0-3.55,5.85,27.28,27.28,0,0,0-1.45,7.12,53.48,53.48,0,0,0,0,7.7c.18,2.62.48,5.3.79,8s.64,5.48,1,8.27c2.85,22.33,6.61,42.37,9.53,56.83,1.51,7.2,2.72,13,3.57,17.1.43,2,.76,3.59,1,4.66a7,7,0,0,1,.23,1.65,7.34,7.34,0,0,1-.54-1.58c-.3-1-.72-2.59-1.24-4.59-1-4-2.45-9.8-4.06-17-3.2-14.42-7.14-34.48-10-56.86-.36-2.8-.68-5.57-1-8.29s-.61-5.43-.77-8.1c-.32-5.34-.14-10.65,1.63-15.43a20.41,20.41,0,0,1,3.86-6.25,18,18,0,0,1,5.5-4.25,12.42,12.42,0,0,1,6.46-1,12.13,12.13,0,0,1,5.62,2.16,12,12,0,0,1,3.52,4.18,33.52,33.52,0,0,1,1.75,4.43,50.27,50.27,0,0,1,1.62,7.4c.29,2.06.41,3.66.46,4.75A6,6,0,0,1,267.72,205.31Z" style="fill:#263238"></path><path d="M254.26,303.6c.86-.29,21.2-6,31-9.41,2.07,4.78,4.15,9.62,5,14.77s.26,10.7-2.65,15a18.83,18.83,0,0,1-9.79,7.11c-5.79,1.92-12.89,1.17-16.95-3.38-2.45-2.75-3.49-6.46-4.3-10.07a125.61,125.61,0,0,1-2.3-14" style="fill:#263238"></path><path d="M285.18,295.4s0,.14,0,.42-.06.67-.14,1.18a20.39,20.39,0,0,1-1.14,4.22,17.65,17.65,0,0,1-3.38,5.56,11.67,11.67,0,0,1-7,3.76,16.79,16.79,0,0,1-7.92-.76,28.27,28.27,0,0,1-5.85-2.82c-1.58-1-2.79-1.84-3.62-2.44a8.73,8.73,0,0,1-1.26-1,10.68,10.68,0,0,1,1.37.82c.87.55,2.11,1.37,3.69,2.29a29.67,29.67,0,0,0,5.82,2.68,16.69,16.69,0,0,0,7.69.71,11.88,11.88,0,0,0,3.78-1.27,12.18,12.18,0,0,0,2.92-2.3,17.89,17.89,0,0,0,3.38-5.37,23.41,23.41,0,0,0,1.29-4.13C285.06,296,285.14,295.39,285.18,295.4Z" style="fill:#455a64"></path><path d="M274.82,310s.16-.14.51-.22a2.43,2.43,0,0,1,1.52.24,2.37,2.37,0,0,1,1.27,1.9,2.29,2.29,0,0,1-4.2,1.38,2.26,2.26,0,0,1-.23-2.27,2.35,2.35,0,0,1,1-1.13c.32-.16.53-.18.54-.15a3.21,3.21,0,0,0-1.23,1.42,1.9,1.9,0,0,0,.28,1.85,1.83,1.83,0,0,0,3.33-1.07,2,2,0,0,0-1-1.61A3.2,3.2,0,0,0,274.82,310Z" style="fill:#455a64"></path></g></svg>